<?xml version="1.0" encoding="UTF-8"?>
<svg width="255px" height="254px" viewBox="0 0 255 254" version="1.1" xmlns="http://www.w3.org/2000/svg" xmlns:xlink="http://www.w3.org/1999/xlink">
    <!-- Generator: Sketch 51.2 (57519) - http://www.bohemiancoding.com/sketch -->
    <title>drink-icon</title>
    <desc>Created with Sketch.</desc>
    <defs>
        <polygon id="path-1" points="0.0275868738 0.211054424 270.815207 0.211054424 270.815207 270.408297 0.0275868738 270.408297"></polygon>
        <path d="M254.323511,126.829219 C254.323511,196.800401 197.583716,253.520235 127.590699,253.520235 C57.5999417,253.520235 0.860147138,196.800401 0.860147138,126.829219 C0.860147138,56.8580378 57.5999417,0.138203578 127.590699,0.138203578 C197.583716,0.138203578 254.323511,56.8580378 254.323511,126.829219" id="path-3"></path>
    </defs>
    <g id="Page-1" stroke="none" stroke-width="1" fill="none" fill-rule="evenodd">
        <g id="The-Journey" transform="translate(-385.000000, -99.000000)">
            <g id="drink-icon" transform="translate(377.000000, 90.000000)">
                <g id="Group">
                    <g id="Group-3">
                        <mask id="mask-2" fill="white">
                            <use xlink:href="#path-1"></use>
                        </mask>
                        <g id="Clip-2"></g>
                    </g>
                    <g id="last-word" transform="translate(8.000000, 9.000000)">
                        <mask id="mask-4" fill="white">
                            <use xlink:href="#path-3"></use>
                        </mask>
                        <use id="Mask" fill="#802D1F" xlink:href="#path-3"></use>
                    </g>
                </g>
                <g id="if_Drinks-19_1200403" transform="translate(96.000000, 42.000000)" fill-rule="nonzero">
                    <g id="Group" transform="translate(31.000000, 0.000000)">
                        <path d="M64.3512195,33.6682927 C64.3512195,50.4195122 50.7512195,64.0195122 34,64.0195122 L34.995122,33.1707317 L3.48292683,33.6682927 C3.64878049,16.9170732 17.2487805,3.31707317 34,3.31707317 C50.7512195,3.31707317 64.3512195,16.9170732 64.3512195,33.6682927 Z" id="Shape" fill="#E5DC35"></path>
                        <path d="M34,67.502439 C32.1756098,67.502439 30.6829268,66.0097561 30.6829268,64.1853659 C30.6829268,62.3609756 32.1756098,60.8682927 34,60.8682927 C48.9268293,60.8682927 61.0341463,48.7609756 61.0341463,33.8341463 C61.0341463,18.9073171 48.9268293,6.8 34,6.8 C19.0731707,6.8 6.96585366,18.9073171 6.96585366,33.8341463 C6.96585366,35.6585366 5.47317073,37.1512195 3.64878049,37.1512195 C1.82439024,37.1512195 0.331707317,35.6585366 0.331707317,33.8341463 C0.331707317,15.0926829 15.4243902,0 34,0 C52.5756098,0 67.6682927,15.0926829 67.6682927,33.6682927 C67.6682927,52.2439024 52.5756098,67.502439 34,67.502439 Z" id="Shape" fill="#652419"></path>
                        <g transform="translate(9.951220, 9.626016)" fill="#FFFFFF" id="Shape" opacity="0.7">
                            <g transform="translate(9.626016, 0.000000)">
                                <path d="M7.29105691,14.0910569 L0.988617886,7.78861789 C-0.504065041,6.29593496 -0.172357724,3.97398374 1.65203252,2.97886179 C3.80813008,1.65203252 6.1300813,0.656910569 8.61788618,0.159349593 C10.6081301,-0.338211382 12.4325203,1.15447154 12.4325203,3.14471545 L12.4325203,11.9349593 C12.4325203,14.5886179 9.11544715,15.9154472 7.29105691,14.0910569 Z"></path>
                            </g>
                            <g transform="translate(25.878049, 0.000000)">
                                <path d="M0.16097561,11.9349593 L0.16097561,3.14471545 C0.16097561,1.15447154 1.98536585,-0.338211382 3.97560976,0.159349593 C6.46341463,0.822764228 8.78536585,1.81788618 11.1073171,3.14471545 C12.7658537,4.1398374 13.097561,6.46178862 11.7707317,7.95447154 L5.46829268,14.2569106 C3.47804878,15.9154472 0.16097561,14.5886179 0.16097561,11.9349593 Z"></path>
                            </g>
                            <g transform="translate(33.170732, 9.617886)">
                                <path d="M0.995121951,7.29268293 L7.29756098,0.990243902 C8.7902439,-0.502439024 11.1121951,-0.170731707 12.1073171,1.65365854 C13.4341463,3.8097561 14.4292683,6.13170732 14.9268293,8.6195122 C15.4243902,10.6097561 13.9317073,12.4341463 11.9414634,12.4341463 L3.15121951,12.4341463 C0.331707317,12.4341463 -0.995121951,9.11707317 0.995121951,7.29268293 Z"></path>
                            </g>
                            <g transform="translate(32.845528, 25.203252)">
                                <path d="M3.47642276,0.829268293 L12.2666667,0.829268293 C14.2569106,0.829268293 15.7495935,2.65365854 15.2520325,4.64390244 C14.5886179,7.13170732 13.5934959,9.45365854 12.2666667,11.7756098 C11.2715447,13.4341463 8.9495935,13.7658537 7.45691057,12.4390244 L1.15447154,6.13658537 C-0.669918699,4.14634146 0.656910569,0.829268293 3.47642276,0.829268293 Z"></path>
                            </g>
                            <g transform="translate(25.878049, 33.170732)">
                                <path d="M5.46829268,0.988617886 L11.7707317,7.29105691 C13.2634146,8.78373984 12.9317073,11.1056911 11.1073171,12.100813 C8.95121951,13.4276423 6.62926829,14.4227642 4.14146341,14.9203252 C2.15121951,15.4178862 0.326829268,13.9252033 0.326829268,11.9349593 L0.326829268,3.14471545 C0.16097561,0.491056911 3.47804878,-1.00162602 5.46829268,0.988617886 Z"></path>
                            </g>
                            <g transform="translate(0.000000, 9.617886)">
                                <path d="M11.9414634,12.4341463 L3.15121951,12.4341463 C1.16097561,12.4341463 -0.331707317,10.6097561 0.165853659,8.6195122 C0.829268293,6.13170732 1.82439024,3.8097561 3.15121951,1.48780488 C4.14634146,-0.170731707 6.46829268,-0.502439024 7.96097561,0.824390244 L14.2634146,7.12682927 C15.9219512,9.11707317 14.595122,12.4341463 11.9414634,12.4341463 Z"></path>
                            </g>
                        </g>
                    </g>
                    <rect id="Rectangle-path" fill="#EAF3FB" x="7" y="31" width="62" height="151"></rect>
                    <path d="M53.4577657,151 L22.5422343,151 C13.9264305,151 7,144.297003 7,135.959128 L7,31 L69,31 L69,135.959128 C69,144.297003 62.0735695,151 53.4577657,151 Z" id="Shape" fill="#E34781"></path>
                    <g id="Group" opacity="0.2" transform="translate(49.000000, 31.000000)" fill="#62345B">
                        <g id="Rectangle-path">
                            <rect x="0.690909091" y="0.492391304" width="17.4454545" height="150.507609"></rect>
                        </g>
                    </g>
                    <g id="Group" opacity="0.7" transform="translate(9.000000, 31.000000)" fill="#FFFFFF">
                        <path d="M4.14,91.0142857 C2.16,91.0142857 0.54,89.5357143 0.54,87.7285714 L0.54,3.45 C0.54,1.64285714 2.16,0.164285714 4.14,0.164285714 C6.12,0.164285714 7.74,1.64285714 7.74,3.45 L7.74,87.7285714 C7.74,89.5357143 6.12,91.0142857 4.14,91.0142857 Z" id="Shape"></path>
                    </g>
                    <path d="M68.4619165,188 L3.53808354,188 C1.59213759,188 0,186.504702 0,184.677116 L0,32.322884 C0,30.4952978 1.59213759,29 3.53808354,29 L68.4619165,29 C70.4078624,29 72,30.4952978 72,32.322884 L72,184.677116 C72,186.504702 70.4078624,188 68.4619165,188 Z M7,182 L65,182 L65,36 L7,36 L7,182 Z" id="Shape" fill="#652419"></path>
                    <g id="Group" transform="translate(25.000000, 116.000000)" fill="#FFFFFF" opacity="0.7">
                        <g transform="translate(16.333333, 0.000000)" id="Oval">
                            <ellipse cx="3.46666667" cy="3.3372549" rx="3.2" ry="3.24705882"></ellipse>
                        </g>
                        <g transform="translate(16.333333, 16.235294)" id="Oval">
                            <ellipse cx="3.46666667" cy="3.51764706" rx="3.2" ry="3.24705882"></ellipse>
                        </g>
                        <g transform="translate(0.000000, 16.235294)" id="Oval">
                            <ellipse cx="3.44444444" cy="3.51764706" rx="3.2" ry="3.24705882"></ellipse>
                        </g>
                    </g>
                </g>
            </g>
        </g>
    </g>
</svg>