<?xml version="1.0" encoding="UTF-8"?>
<svg width="255px" height="254px" viewBox="0 0 255 254" version="1.1" xmlns="http://www.w3.org/2000/svg" xmlns:xlink="http://www.w3.org/1999/xlink">
    <!-- Generator: Sketch 51.2 (57519) - http://www.bohemiancoding.com/sketch -->
    <title>drink-icon</title>
    <desc>Created with Sketch.</desc>
    <defs>
        <polygon id="path-1" points="0.0275868738 0.211054424 270.815207 0.211054424 270.815207 270.408297 0.0275868738 270.408297"></polygon>
        <path d="M254.323511,126.829219 C254.323511,196.800401 197.583716,253.520235 127.590699,253.520235 C57.5999417,253.520235 0.860147138,196.800401 0.860147138,126.829219 C0.860147138,56.8580378 57.5999417,0.138203578 127.590699,0.138203578 C197.583716,0.138203578 254.323511,56.8580378 254.323511,126.829219" id="path-3"></path>
    </defs>
    <g id="Page-1" stroke="none" stroke-width="1" fill="none" fill-rule="evenodd">
        <g id="Old-Fashioned" transform="translate(-385.000000, -99.000000)">
            <g id="drink-icon" transform="translate(377.000000, 90.000000)">
                <g id="Group">
                    <g id="Group-3">
                        <mask id="mask-2" fill="white">
                            <use xlink:href="#path-1"></use>
                        </mask>
                        <g id="Clip-2"></g>
                    </g>
                    <g id="last-word" transform="translate(8.000000, 9.000000)">
                        <mask id="mask-4" fill="white">
                            <use xlink:href="#path-3"></use>
                        </mask>
                        <use id="Mask" fill="#802D1F" xlink:href="#path-3"></use>
                    </g>
                </g>
                <g id="Group" transform="translate(92.000000, 106.000000) scale(-1, 1) translate(-92.000000, -106.000000) translate(67.000000, 81.000000)" fill-rule="nonzero">
                    <path d="M45.818756,24.4985195 C45.818756,36.1741664 36.339518,45.6534044 24.6638712,45.6534044 L25.3574739,24.1517182 L3.39338583,24.4985195 C3.5089863,12.8228727 12.9882243,3.34363467 24.6638712,3.34363467 C36.339518,3.34363467 45.818756,12.8228727 45.818756,24.4985195 Z" id="Shape" fill="#E5A435"></path>
                    <path d="M24.6419214,49.06874 C23.3157392,49.06874 22.2306811,47.9836819 22.2306811,46.6574997 C22.2306811,45.3313176 23.3157392,44.2462594 24.6419214,44.2462594 C35.4925027,44.2462594 44.2935298,35.4452323 44.2935298,24.594651 C44.2935298,13.7440697 35.4925027,4.94304261 24.6419214,4.94304261 C13.7913401,4.94304261 4.99031299,13.7440697 4.99031299,24.594651 C4.99031299,25.9208332 3.90525486,27.0058913 2.57907269,27.0058913 C1.25289053,27.0058913 0.167832397,25.9208332 0.167832397,24.594651 C0.167832397,10.9711433 11.1389757,0 24.6419214,0 C38.1448671,0 49.1160104,10.9711433 49.1160104,24.474089 C49.1160104,37.9770347 38.1448671,49.06874 24.6419214,49.06874 Z" id="Shape" fill="#652419"></path>
                    <g transform="translate(7.901804, 7.740986)" fill="#FFFFFF" id="Shape" opacity="0.7">
                        <g transform="translate(6.709360, 0.000000)">
                            <path d="M5.08188705,9.82150607 L0.689069431,5.42868845 C-0.351334743,4.38828427 -0.120133815,2.76987778 1.15147129,2.076275 C2.65427732,1.15147129 4.27268381,0.457868504 6.00669076,0.111067112 C7.39389633,-0.235734279 8.66550143,0.804669895 8.66550143,2.19187546 L8.66550143,8.31870004 C8.66550143,10.1683075 6.35349216,11.0931112 5.08188705,9.82150607 Z"></path>
                        </g>
                        <g transform="translate(18.037072, 0.000000)">
                            <path d="M0.11220045,8.31870004 L0.11220045,2.19187546 C0.11220045,0.804669895 1.38380555,-0.235734279 2.77101112,0.111067112 C4.50501807,0.573468967 6.12342457,1.26707175 7.74183106,2.19187546 C8.8978357,2.88547824 9.12903662,4.50388474 8.20423291,5.54428891 L3.81141529,9.93710653 C2.42420973,11.0931112 0.11220045,10.1683075 0.11220045,8.31870004 Z"></path>
                        </g>
                        <g transform="translate(23.120093, 6.703694)">
                            <path d="M0.693602783,5.08302039 L5.08642041,0.690202769 C6.12682458,-0.350201405 7.74523107,-0.119000477 8.43883386,1.15260462 C9.36363757,2.65541065 10.0572403,4.27381715 10.4040417,6.0078241 C10.7508431,7.39502967 9.71043896,8.66663477 8.32323339,8.66663477 L2.19640881,8.66663477 C0.231200928,8.66663477 -0.693602783,6.35462549 0.693602783,5.08302039 Z"></path>
                        </g>
                        <g transform="translate(22.893425, 17.566737)">
                            <path d="M2.42307639,0.578002319 L8.54990097,0.578002319 C9.93710653,0.578002319 10.9775107,1.84960742 10.6307093,3.23681299 C10.1683075,4.97081994 9.47470468,6.58922643 8.54990097,8.20763293 C7.85629818,9.36363757 6.23789169,9.59483849 5.19748752,8.67003478 L0.804669895,4.27721716 C-0.466935207,2.89001159 0.457868504,0.578002319 2.42307639,0.578002319 Z"></path>
                        </g>
                        <g transform="translate(18.037072, 23.120093)">
                            <path d="M3.81141529,0.689069431 L8.20423291,5.08188705 C9.24463709,6.12229123 9.01343616,7.74069772 7.74183106,8.4343005 C6.23902503,9.35910421 4.62061854,10.052707 2.88661158,10.3995084 C1.49940602,10.7463098 0.227800914,9.70590561 0.227800914,8.31870004 L0.227800914,2.19187546 C0.11220045,0.34226804 2.42420973,-0.698136134 3.81141529,0.689069431 Z"></path>
                        </g>
                        <g transform="translate(0.000000, 6.703694)">
                            <path d="M8.32323339,8.66663477 L2.19640881,8.66663477 C0.809203246,8.66663477 -0.231200928,7.39502967 0.115600464,6.0078241 C0.578002319,4.27381715 1.2716051,2.65541065 2.19640881,1.03700416 C2.89001159,-0.119000477 4.50841809,-0.350201405 5.54882226,0.574602305 L9.94163988,4.96741993 C11.0976445,6.35462549 10.1728408,8.66663477 8.32323339,8.66663477 Z"></path>
                        </g>
                    </g>
                </g>
                <g id="if_Drinks-26_1200412" transform="translate(90.000000, 104.000000)" fill-rule="nonzero">
                    <path d="M77.2736434,99 L8.84305849,99 C5.1213951,99 2,95.9887077 2,92.1342535 L2,3 L83.9966482,3 L83.9966482,92.1342535 C84.1167019,95.9887077 80.9953068,99 77.2736434,99 Z" id="Shape" fill="#EAF3FB"></path>
                    <path d="M70.4319335,71 L15.6863867,71 C8.1228572,71 2,64.8351648 2,57.2197802 L2,16 L83.9982641,16 L83.9982641,57.3406593 C84.1183202,64.8351648 77.9954629,71 70.4319335,71 Z" id="Shape" fill="#C17418"></path>
                    <g id="Group" opacity="0.2" transform="translate(69.000000, 2.000000)" fill="#62345B">
                        <g id="Shape">
                            <path d="M0.728571429,0.36 L0.728571429,96 L8.98571429,96 C12.75,96 15.9071429,93 15.9071429,89.16 L15.9071429,0.36 L0.728571429,0.36 Z"></path>
                        </g>
                    </g>
                    <g id="Group" opacity="0.7" transform="translate(11.000000, 1.000000)" fill="#FFFFFF">
                        <path d="M2.48,36.1645161 C1.16,36.1645161 0.08,35.1246419 0.08,33.8536844 L0.08,2.3108317 C0.08,1.03987427 1.16,0 2.48,0 C3.8,0 4.88,1.03987427 4.88,2.3108317 L4.88,33.8536844 C4.88,35.1246419 3.8,36.1645161 2.48,36.1645161 Z" id="Shape"></path>
                    </g>
                    <path d="M77.85252,101 L9.26529218,101 C4.21149645,101 0,96.776583 0,91.7084827 L0,2.41338112 C0,1.08602151 1.08295623,0 2.4065694,0 L84.5909143,0 C85.9145275,0 86.9974837,1.08602151 86.9974837,2.41338112 L86.9974837,91.7084827 C87.1178122,96.776583 82.9063158,101 77.85252,101 Z M4.8131388,4.82676225 L4.8131388,91.7084827 C4.8131388,94.1218638 6.85872278,96.1732378 9.26529218,96.1732378 L77.7321915,96.1732378 C80.1387609,96.1732378 82.1843449,94.1218638 82.1843449,91.7084827 L82.1843449,4.82676225 L4.8131388,4.82676225 Z" id="Shape" fill="#652419"></path>
                    <g id="Group" opacity="0.5" transform="translate(17.000000, 36.000000)" fill="#FFFFFF">
                        <path d="M10.6857143,31.3793103 L2.18571429,20.5172414 C-0.121428571,17.5 0.364285714,13.1551724 3.4,10.862069 L14.3285714,2.4137931 C17.3642857,0.120689655 21.7357143,0.603448276 24.0428571,3.62068966 L32.5428571,14.4827586 C34.85,17.5 34.3642857,21.8448276 31.3285714,24.137931 L20.4,32.5862069 C17.3642857,34.8793103 12.9928571,34.3965517 10.6857143,31.3793103 Z" id="Shape"></path>
                    </g>
                    <g id="Group" opacity="0.5" transform="translate(28.000000, 7.000000)" fill="#FFFFFF">
                        <path d="M0.711111111,17.0666667 L5.45185185,4.38518519 C6.75555556,0.948148148 10.6666667,-0.82962963 14.1037037,0.474074074 L26.6666667,5.21481481 C30.1037037,6.51851852 31.8814815,10.4296296 30.5777778,13.8666667 L25.837037,26.5481481 C24.5333333,29.9851852 20.6222222,31.762963 17.1851852,30.4592593 L4.62222222,25.7185185 C1.18518519,24.4148148 -0.592592593,20.5037037 0.711111111,17.0666667 Z" id="Shape"></path>
                    </g>
                    <g id="Group" opacity="0.5" transform="translate(48.000000, 31.000000)" fill="#FFFFFF">
                        <path d="M27.7333333,25.9555556 L15.2888889,31.1703704 C11.8518519,32.5925926 7.94074074,30.9333333 6.51851852,27.4962963 L1.18518519,15.0518519 C-0.237037037,11.6148148 1.42222222,7.7037037 4.85925926,6.28148148 L17.3037037,1.06666667 C20.7407407,-0.355555556 24.6518519,1.3037037 26.0740741,4.74074074 L31.2888889,17.1851852 C32.7111111,20.6222222 31.1703704,24.5333333 27.7333333,25.9555556 Z" id="Shape"></path>
                    </g>
                </g>
            </g>
        </g>
    </g>
</svg>