<?xml version="1.0" encoding="UTF-8"?>
<svg width="277px" height="323px" viewBox="0 0 277 323" version="1.1" xmlns="http://www.w3.org/2000/svg" xmlns:xlink="http://www.w3.org/1999/xlink">
    <!-- Generator: Sketch 51.2 (57519) - http://www.bohemiancoding.com/sketch -->
    <title>robo-butler</title>
    <desc>Created with Sketch.</desc>
    <defs>
        <polygon id="path-1" points="0.0267725011 0.204824035 262.820663 0.204824035 262.820663 262.425764 0.0267725011 262.425764"></polygon>
        <path d="M256.479564,127.335041 C256.479564,197.661917 199.220945,254.670083 128.587916,254.670083 C57.9571687,254.670083 0.698549542,197.661917 0.698549542,127.335041 C0.698549542,57.0081658 57.9571687,0 128.587916,0 C199.220945,0 256.479564,57.0081658 256.479564,127.335041" id="path-3"></path>
        <path d="M0.799973154,63.7996154 L0.793912752,63.7996154 L0.793912752,89.7611538 L128.928141,89.7611538 L128.922081,63.7996154 C128.458027,28.8311538 99.9550872,0.627403846 64.8601611,0.627403846 C29.7661007,0.627403846 1.2622953,28.8311538 0.799973154,63.7996154 Z M76.9818322,43.0303846 C76.9818322,38.2517308 80.8578926,34.3765385 85.6395503,34.3765385 C90.4203423,34.3765385 94.2972685,38.2517308 94.2972685,43.0303846 C94.2972685,47.8099038 90.4203423,51.6842308 85.6395503,51.6842308 C80.8578926,51.6842308 76.9818322,47.8099038 76.9818322,43.0303846 Z M35.4247852,43.0303846 C35.4247852,38.2517308 39.3008456,34.3765385 44.0825034,34.3765385 C48.8632953,34.3765385 52.7402215,38.2517308 52.7402215,43.0303846 C52.7402215,47.8099038 48.8632953,51.6842308 44.0825034,51.6842308 C39.3008456,51.6842308 35.4247852,47.8099038 35.4247852,43.0303846 Z" id="path-5"></path>
    </defs>
    <g id="Page-1" stroke="none" stroke-width="1" fill="none" fill-rule="evenodd">
        <g id="Idle-Screen" transform="translate(-385.000000, -161.000000)">
            <g id="robo-butler" transform="translate(382.000000, 158.000000)">
                <g id="Group">
                    <g id="Group-3">
                        <mask id="mask-2" fill="white">
                            <use xlink:href="#path-1"></use>
                        </mask>
                        <g id="Clip-2"></g>
                    </g>
                    <g id="last-word" transform="translate(3.000000, 3.000000)">
                        <mask id="mask-4" fill="white">
                            <use xlink:href="#path-3"></use>
                        </mask>
                        <use id="Mask" fill="#802D1F" xlink:href="#path-3"></use>
                        <g id="Group-26" mask="url(#mask-4)">
                            <g transform="translate(60.000000, 23.000000)">
                                <polygon id="Fill-1" fill="#969696" points="33 126 105 126 105 109 33 109"></polygon>
                                <polygon id="Fill-2" fill="#672B20" points="32.7301622 125 5 125 5 249 133 249 133 125"></polygon>
                                <polygon id="Fill-3" fill="#D0D2D3" points="0 103 10 103 10 88 0 88"></polygon>
                                <polygon id="Fill-4" fill="#D0D2D3" points="127 103 137 103 137 88 127 88"></polygon>
                                <polygon id="Fill-5" fill="#D0D2D3" points="67 37 70 37 70 5 67 5"></polygon>
                                <path d="M5.00605405,93.0776699 C5.46875676,58.1620194 33.9427027,30 69,30 C104.057297,30 132.531243,58.1620194 132.993946,93.0776699 L133,119 L5,119 L5,93.0776699 L5.00605405,93.0776699 Z M48.2432432,80.9805825 C53.0198919,80.9805825 56.8918919,77.1121068 56.8918919,72.3398058 C56.8918919,67.5683689 53.0198919,63.6990291 48.2432432,63.6990291 C43.4665946,63.6990291 39.5945946,67.5683689 39.5945946,72.3398058 C39.5945946,77.1121068 43.4665946,80.9805825 48.2432432,80.9805825 Z M89.7567568,80.9805825 C94.5334054,80.9805825 98.4054054,77.1121068 98.4054054,72.3398058 C98.4054054,67.5683689 94.5334054,63.6990291 89.7567568,63.6990291 C84.980973,63.6990291 81.1081081,67.5683689 81.1081081,72.3398058 C81.1081081,77.1121068 84.980973,80.9805825 89.7567568,80.9805825 Z" id="Fill-6" fill="#E2E2E2"></path>
                                <g id="Group-10" stroke-width="1" fill="none" transform="translate(4.000000, 29.000000)">
                                    <mask id="mask-6" fill="white">
                                        <use xlink:href="#path-5"></use>
                                    </mask>
                                    <g id="Clip-9"></g>
                                    <polygon id="Fill-8" fill="#B8B8B8" mask="url(#mask-6)" points="-3.53494631 94.0880769 133.257 94.0880769 133.257 -3.70038462 -3.53494631 -3.70038462"></polygon>
                                </g>
                                <g id="Group-25" stroke-width="1" fill="none" transform="translate(3.000000, 0.000000)">
                                    <path d="M77.8228881,92.1871349 C75.5348034,90.4180186 74.3687186,87.2652744 71.0053119,87.3358326 C68.7993458,87.3814372 66.8725831,89.9378791 64.7089729,89.1066698 C63.6621763,88.7039721 62.7675153,87.9906465 61.7068881,87.6163442 C60.4137356,87.1585767 58.9572102,87.2876465 57.7513627,87.9467628 C56.4314136,88.668693 55.5453966,89.9955302 54.5599729,91.0866 C53.5313288,92.2267163 52.2641085,93.1190186 50.8482102,93.7282279 C47.6239729,95.1144372 44.0729898,94.540507 40.6992102,94.1808326 C43.1031254,97.0530651 45.5424814,100.043181 48.8194475,101.970623 C50.5741932,103.002321 52.486261,103.620995 54.4726678,104.039181 C56.5187186,104.469414 59.1784983,104.829949 61.1294644,103.859344 C62.6041424,103.125367 63.5904305,101.623856 65.1230237,101.000019 C66.5103966,100.436414 68.1000407,102.450763 69.0932441,103.201949 C70.8177356,104.505553 73.0133288,104.57267 75.0974136,104.322274 C77.1460576,104.075321 79.2413797,103.543553 81.1110915,102.665879 C85.0354983,100.823623 87.8283966,97.4290884 90.5460915,94.1808326 C88.3237017,94.4183209 86.0676,94.7547628 83.8270576,94.5646 C81.607261,94.3752977 79.5802271,93.5449488 77.8228881,92.1871349" id="Fill-11" fill="#802D1F"></path>
                                    <path d="M70.3771475,4.94233953 C70.3771475,7.63559535 68.1841475,9.81859535 65.4785542,9.81859535 C62.7738254,9.81859535 60.5808254,7.63559535 60.5808254,4.94233953 C60.5808254,2.24994419 62.7738254,0.066944186 65.4785542,0.066944186 C68.1841475,0.066944186 70.3771475,2.24994419 70.3771475,4.94233953" id="Fill-13" fill="#D0D2D3"></path>
                                    <path d="M1.65680847,118.506956 C1.65680847,118.506956 -10.3212763,47.2294674 51.4224356,31.4554209 C51.4224356,31.4554209 18.9449441,57.8441651 25.8601983,118.506956" id="Fill-15" fill="#9F9F9F"></path>
                                    <polygon id="Fill-17" fill="#F0F0F1" points="65.6229102 184.332537 101.873537 125.390677 29.3722831 125.390677"></polygon>
                                    <path d="M69.4519729,166.412319 C69.4519729,168.517016 67.7378542,170.224179 65.6226508,170.224179 C63.5083119,170.224179 61.7941932,168.517016 61.7941932,166.412319 C61.7941932,164.307621 63.5083119,162.600458 65.6226508,162.600458 C67.7378542,162.600458 69.4519729,164.307621 69.4519729,166.412319" id="Fill-19" fill="#672B20"></path>
                                    <path d="M69.4519729,154.376735 C69.4519729,156.481433 67.7378542,158.188595 65.6226508,158.188595 C63.5083119,158.188595 61.7941932,156.481433 61.7941932,154.376735 C61.7941932,152.272037 63.5083119,150.564874 65.6226508,150.564874 C67.7378542,150.564874 69.4519729,152.272037 69.4519729,154.376735" id="Fill-21" fill="#672B20"></path>
                                    <path d="M76.6684729,129.80426 C74.9621339,129.805981 70.2130831,132.026842 68.4073373,132.976795 C68.1246763,132.606795 67.6198627,132.385656 66.9784729,132.385656 L64.2676932,132.385656 C63.6263034,132.385656 63.1214898,132.606795 62.8379644,132.976795 C61.0080153,132.015656 56.1924051,129.805121 54.5776932,129.80426 C53.7253881,129.80426 53.1903203,130.63547 52.7901,132.585284 C52.4789136,134.099702 52.3682695,135.74147 52.3682695,136.687981 C52.3682695,136.756819 52.3942017,143.569981 54.5768288,143.571702 C56.1915407,143.571702 61.0062864,141.361167 62.8388288,140.399167 C63.1223542,140.768307 63.6271678,140.990307 64.2676932,140.990307 L66.9784729,140.990307 C67.6198627,140.990307 68.1246763,140.767447 68.4082017,140.396586 C70.2122186,141.34826 74.9638627,143.571702 76.6667441,143.571702 C78.8519644,143.569981 78.8770322,136.756819 78.8770322,136.687981 C78.8770322,135.74147 78.7663881,134.099702 78.4560661,132.585284 C78.0558458,130.63547 77.520778,129.80426 76.6684729,129.80426 Z" id="Fill-23" fill="#672B20"></path>
                                </g>
                            </g>
                        </g>
                    </g>
                </g>
                <g id="if_Drinks-34_1200419" transform="translate(59.000000, 184.000000)" fill-rule="nonzero">
                    <g id="Group">
                        <path d="M49.2,122 L8.8,122 C5.2,122 2.3,119.1 2.3,115.5 L2.3,51.5 C2.3,43.5 4.3,39.7 7.7,37.5 L16.4,31.7 C19.8,29.4 21.8,25.6 21.8,21.6 L21.8,12.5 L19.2,12.5 L19.2,2 L38.8,2 L38.8,12.4 L36.2,12.4 L36.2,21.5 C36.2,25.6 38.2,29.4 41.6,31.6 L50.3,37.4 C53.7,39.7 55.7,43.5 55.7,51.4 L55.7,115.3 C55.7,119.1 52.8,122 49.2,122 Z" id="Shape" fill="#27A249"></path>
                        <rect id="Rectangle-path" fill="#24763B" x="19.2" y="2" width="19.6" height="10.4"></rect>
                        <rect id="Rectangle-path" fill="#FFFFFF" x="19.2" y="2" width="19.6" height="3.9"></rect>
                        <path d="M49.2,122 L8.8,122 C5.2,122 2.3,119.1 2.3,115.5 L2.3,51.5 C2.3,43.5 4.3,39.7 7.7,37.5 L16.4,31.7 L41.6,31.7 L50.3,37.5 C53.7,39.8 55.7,43.6 55.7,51.5 L55.7,115.4 C55.7,119.1 52.8,122 49.2,122 Z" id="Shape" fill="#2B4C26"></path>
                        <path d="M3.6,112.9 L54.5,112.9 L54.5,56.8 C54.5,49.6 48.7,43.8 41.5,43.8 L16.6,43.8 C9.4,43.8 3.6,49.6 3.6,56.8 L3.6,112.9 Z" id="Shape" fill="#FFFFFF"></path>
                        <path d="M50.7,109.2 L7.3,109.2 L7.3,56.8 C7.3,51.7 11.5,47.5 16.6,47.5 L41.4,47.5 C46.5,47.5 50.7,51.7 50.7,56.8 L50.7,109.2 Z M10.3,106.2 L47.7,106.2 L47.7,56.8 C47.7,53.3 44.9,50.5 41.4,50.5 L16.6,50.5 C13.1,50.5 10.3,53.3 10.3,56.8 L10.3,106.2 Z" id="Shape" fill="#27A249"></path>
                        <g opacity="0.3" transform="translate(33.000000, 2.000000)" fill="#62345B" id="Shape">
                            <g>
                                <path d="M17.3,35.5 L8.6,29.7 C5.2,27.4 3.2,23.6 3.2,19.6 L3.2,10.5 L5.8,10.5 L5.8,0 L0.6,0 L0.6,10.4 L0.6,19.5 C0.6,23.6 2.6,30 6,32.2 L9.5,35.4 C12.9,37.7 13.6,41.5 13.6,49.4 L13.6,120 L16.2,120 C19.8,120 22.7,117.1 22.7,113.5 L22.7,49.5 C22.7,41.6 20.7,37.8 17.3,35.5 Z"></path>
                            </g>
                        </g>
                        <path d="M49.2,124 L8.8,124 C4.1,124 0.3,120.2 0.3,115.5 L0.3,51.5 C0.3,43.6 2.2,38.7 6.6,35.8 L15.3,30 C18.1,28.1 19.8,25 19.8,21.5 L19.8,14.4 L19.2,14.4 C18.1,14.4 17.2,13.5 17.2,12.4 L17.2,2 C17.2,0.9 18.1,0 19.2,0 L38.8,0 C39.9,0 40.8,0.9 40.8,2 L40.8,12.4 C40.8,13.5 39.9,14.4 38.8,14.4 L38.2,14.4 L38.2,21.5 C38.2,24.9 39.9,28.1 42.7,30 L51.4,35.8 C55.8,38.7 57.7,43.5 57.7,51.5 L57.7,115.4 C57.7,120.2 53.9,124 49.2,124 Z M21.2,10.4 L21.8,10.4 C22.9,10.4 23.8,11.3 23.8,12.4 L23.8,21.5 C23.8,26.2 21.4,30.7 17.5,33.3 L8.8,39.1 C6.6,40.6 4.3,43.2 4.3,51.5 L4.3,115.4 C4.3,117.9 6.3,119.9 8.8,119.9 L49.2,119.9 C51.7,119.9 53.7,117.9 53.7,115.4 L53.7,51.5 C53.7,43.3 51.4,40.6 49.2,39.1 L40.5,33.3 C36.6,30.7 34.2,26.3 34.2,21.5 L34.2,12.4 C34.2,11.3 35.1,10.4 36.2,10.4 L36.8,10.4 L36.8,4 L21.2,4 L21.2,10.4 Z" id="Shape" fill="#802D1F"></path>
                        <path d="M38.8,14.4 L19.2,14.4 C18.1,14.4 17.2,13.5 17.2,12.4 C17.2,11.3 18.1,10.4 19.2,10.4 L38.8,10.4 C39.9,10.4 40.8,11.3 40.8,12.4 C40.8,13.5 39.9,14.4 38.8,14.4 Z" id="Shape" fill="#62345B"></path>
                    </g>
                    <circle id="Oval" fill="#934441" cx="29" cy="63.1" r="9.8"></circle>
                    <rect id="Rectangle-path" fill="#F16570" x="11.4" y="77.6" width="35.2" height="11.7"></rect>
                </g>
                <g id="if_Drinks-14_1200399" transform="translate(242.000000, 233.000000)" fill-rule="nonzero">
                    <path d="M30.8645284,18.9566465 C37.7118239,25.8343729 37.7118239,35.0177007 30.8645284,41.856349 C24.017233,48.6949974 12.9292829,48.7340754 6.12089257,41.856349 C-0.687497792,34.9786227 -0.72640288,25.7952949 6.12089257,18.9566465 C11.4119845,13.6811178 25.5734365,13.6811178 30.8645284,18.9566465 Z" id="Shape" fill="#CCCC63"></path>
                    <g id="Group" opacity="0.2" transform="translate(16.000000, 14.000000)" fill="#62345B">
                        <g id="Shape">
                            <path d="M14.72,4.09518072 C11.64,1.03373494 5.64,-0.278313253 0,0.119277108 C4.32,0.437349398 8.36,1.74939759 10.72,4.09518072 C17.76,11.0927711 17.76,20.4361446 10.72,27.3939759 C7.72,30.3759036 3.92,32.0855422 0,32.5228916 C5.24,33.1192771 10.72,31.4096386 14.72,27.3939759 C21.76,20.4361446 21.76,11.0927711 14.72,4.09518072 Z"></path>
                        </g>
                    </g>
                    <path d="M18,48 C13.1744681,48 8.65531915,46.0627907 5.28510638,42.544186 C1.83829787,38.9860465 0,34.7953488 0,30.4069767 C0,26.0186047 1.83829787,21.827907 5.28510638,18.2697674 C7.85106383,15.6209302 12.6382979,14 18,14 C23.3617021,14 28.1489362,15.5813953 30.7148936,18.2697674 C34.1617021,21.827907 36,26.0186047 36,30.4069767 C36,34.7953488 34.1617021,38.9860465 30.7148936,42.544186 C27.3446809,46.0627907 22.8255319,48 18,48 Z M18,15.5813953 C13.0978723,15.5813953 8.61702128,17.044186 6.35744681,19.3767442 C3.21702128,22.6186047 1.53191489,26.4139535 1.53191489,30.4069767 C1.53191489,34.3604651 3.21702128,38.1953488 6.35744681,41.4372093 C9.45957447,44.6395349 13.5957447,46.4186047 18,46.4186047 C22.4042553,46.4186047 26.5404255,44.6395349 29.6425532,41.4372093 C32.7829787,38.1953488 34.4680851,34.3604651 34.4680851,30.4069767 C34.4680851,26.4534884 32.7829787,22.6186047 29.6425532,19.3767442 C27.3829787,17.0046512 22.9021277,15.5813953 18,15.5813953 Z" id="Shape" fill="#802D1F"></path>
                    <path d="M30.7469148,18.8385375 C37.5129744,25.5109583 27.7483202,29.0746376 18.5218753,28.9988147 C8.9494387,28.9229917 -0.469223822,25.5109583 6.29683579,18.8385375 C11.5251546,13.7204875 25.518596,13.7204875 30.7469148,18.8385375 Z" id="Shape" fill="#FBF5A9"></path>
                    <g id="Group" opacity="0.15" transform="translate(6.000000, 23.000000)" fill="#62345B">
                        <path d="M0.078125,4.00555556 C2.8515625,5.75555556 7.65625,6.65 12.5,6.68888889 C17.2265625,6.72777778 22.109375,5.79444444 24.8828125,4.00555556 C19.5703125,-1.24444444 5.390625,-1.24444444 0.078125,4.00555556 Z" id="Shape"></path>
                    </g>
                    <path d="M18.8418812,30 L18.4904257,30 C12.5156807,29.9221411 4.90080974,28.4817518 3.2997343,24.5498783 C2.51872189,22.6034063 3.26068368,20.5012165 5.56467028,18.2043796 C8.18106185,15.5961071 13.0623894,14 18.5294763,14 C23.9965631,14 28.8778907,15.5571776 31.4942823,18.2043796 C34.3059269,21.0072993 34.2668763,23.2262774 33.681117,24.5498783 C32.1581428,28.3260341 25.1290311,30 18.8418812,30 Z M18.5294763,15.5961071 C13.5309969,15.5961071 8.96207426,17.0364964 6.65808766,19.3333333 C4.86175912,21.1240876 4.19789857,22.6812652 4.74460725,24.0048662 C5.79897401,26.5352798 11.461314,28.3649635 18.5294763,28.4428224 L18.8418812,28.4428224 C25.5195373,28.4428224 31.1818773,26.5742092 32.236244,24.0048662 C32.7829527,22.6812652 32.1581428,21.1240876 30.3618143,19.3333333 C28.0968783,16.9975669 23.5279557,15.5961071 18.5294763,15.5961071 Z" id="Shape" fill="#802D1F"></path>
                    <path d="M16.1841142,30 C15.7823464,30 15.4609321,29.7234113 15.3805785,29.3282845 L11.2021931,1.98551202 L4.1712562,5.46262759 C3.76948837,5.66019098 3.28736698,5.50214027 3.08648307,5.1070135 C2.88559915,4.71188673 3.04630628,4.23773461 3.44807411,4.04017122 L11.4834306,0.0889035232 C11.7244913,-0.0296345077 11.965552,-0.0296345077 12.2066127,0.0889035232 C12.4476734,0.207441554 12.6083805,0.405004939 12.6485573,0.681593678 L16.9876498,29.0912084 C17.0680034,29.5258479 16.7465891,29.9209746 16.3046445,30 C16.2644678,30 16.224291,30 16.1841142,30 Z" id="Shape" fill="#802D1F"></path>
                    <g id="Group" transform="translate(14.000000, 4.000000)">
                        <path d="M23.08,11.12 L14.32,1.52 L1.32,1 C0.16,3.52 4.08,7.8 10.08,10.6 C16.08,13.4 21.92,13.64 23.08,11.12 Z" id="Shape" fill="#F9BFC3"></path>
                        <g opacity="0.7" transform="translate(0.800000, 0.800000)" fill="#FFFFFF" id="Shape">
                            <path d="M13.2,1.28 L0.52,0.2 C0.24,0.84 0.24,1.56 0.56,2.36 L13.2,1.28 Z"></path>
                        </g>
                        <path d="M18.92,13.64 C18.92,13.64 18.92,13.64 18.92,13.64 C16.28,13.64 12.96,12.8 9.76,11.28 C3.16,8.24 -0.8,3.64 0.6,0.64 C0.72,0.36 1.04,0.16 1.36,0.16 L14.36,0.68 C14.56,0.68 14.76,0.8 14.92,0.92 L23.68,10.52 C23.88,10.76 23.96,11.12 23.8,11.4 C23.16,12.88 21.4,13.64 18.92,13.64 Z M1.92,1.8 C1.76,3.76 4.92,7.28 10.44,9.84 C13.44,11.24 16.52,12.04 18.92,12.04 C18.92,12.04 18.92,12.04 18.92,12.04 C20.4,12.04 21.52,11.72 22.08,11.2 L13.96,2.32 L1.92,1.8 Z" id="Shape" fill="#802D1F"></path>
                        <g opacity="0.3" transform="translate(14.000000, 2.000000)" fill="#62345B" id="Shape">
                            <g>
                                <path d="M0,0.08 L2.76,10.68 C5.92,11.16 8.4,10.64 9.12,9.12 L0,0.08 Z"></path>
                            </g>
                        </g>
                    </g>
                    <path d="M16.7675376,31 C16.6532785,31 16.5390195,30.9601082 16.4247604,30.9202164 C16.0438969,30.7207573 15.8915515,30.2420555 16.0819833,29.8431373 L23.5469081,14.444896 C23.7373398,14.0459778 24.1943761,13.8864106 24.5752396,14.0858697 C24.9561031,14.2853287 25.1084485,14.7640305 24.9180167,15.1629487 L17.4150056,30.56119 C17.3007465,30.8404327 17.0341421,31 16.7675376,31 Z" id="Shape" fill="#802D1F"></path>
                </g>
                <g id="if_Drinks-38_1200423" transform="translate(172.000000, 176.000000)" fill-rule="nonzero">
                    <g id="Group" transform="translate(29.000000, 0.000000)">
                        <g>
                            <path d="M30.5,122 L7.5,122 C4.5,122 2,119.6 2,116.5 L2,53.3 C2,48.4 4,43.6 7.5,40.1 C11,36.7 13,31.9 13,27 L13,7.5 L11.9,7.5 L11.9,2 L26.1,2 L26.1,7.5 L25,7.5 L25,27 C25,31.9 27,36.7 30.5,40.2 C34,43.7 36,48.4 36,53.4 L36,116.6 C35.9,119.6 33.5,122 30.5,122 Z" id="Shape" fill="#98D1A2"></path>
                            <path d="M30.5,122 L7.5,122 C4.5,122 2,119.6 2,116.5 L2,53.3 C2,48.4 4,43.6 7.5,40.1 C11,36.7 13,31.9 13,27 L13,18.4 L25,18.4 L25,27 C25,31.9 27,36.7 30.5,40.2 C34,43.7 36,48.4 36,53.4 L36,116.6 C35.9,119.6 33.5,122 30.5,122 Z" id="Shape" fill="#AE516E"></path>
                            <g opacity="0.2" transform="translate(20.000000, 2.000000)" fill="#62345B" id="Shape">
                                <g>
                                    <path d="M10.5,38.2 C7,34.7 5,29.9 5,25 L5,0 L0.6,0 L0.6,25 C0.6,29.9 1.5,34.7 5,38.2 C8.5,41.7 8.3,46.4 8.3,51.4 L8.3,114.6 C8.3,117.6 5.9,120.1 2.8,120.1 L10.4,120.1 C13.4,120.1 15.9,117.7 15.9,114.6 L15.9,51.3 C15.9,46.4 13.9,41.7 10.5,38.2 Z"></path>
                                </g>
                            </g>
                            <rect id="Rectangle-path" fill="#66625D" x="2.1" y="67.4" width="33.8" height="32.7"></rect>
                            <path d="M35.9,102.2 L2.1,102.2 C1,102.2 0.1,101.3 0.1,100.2 C0.1,99.1 1,98.2 2.1,98.2 L35.9,98.2 C37,98.2 37.9,99.1 37.9,100.2 C37.9,101.3 37,102.2 35.9,102.2 Z" id="Shape" fill="#62345B"></path>
                            <path d="M35.9,69.4 L2.1,69.4 C1,69.4 0.1,68.5 0.1,67.4 C0.1,66.3 1,65.4 2.1,65.4 L35.9,65.4 C37,65.4 37.9,66.3 37.9,67.4 C37.9,68.5 37,69.4 35.9,69.4 Z" id="Shape" fill="#62345B"></path>
                            <path d="M30.5,124 L7.5,124 C3.4,124 0,120.7 0,116.5 L0,53.3 C0,47.8 2.1,42.6 6,38.7 C9.3,35.6 11,31.4 11,27 L11,9.2 C10.4,8.9 9.9,8.2 9.9,7.4 L9.9,2 C9.9,0.9 10.8,0 11.9,0 L26.1,0 C27.2,0 28.1,0.9 28.1,2 L28.1,7.5 C28.1,8.3 27.7,9 27,9.3 L27,27 C27,31.4 28.7,35.6 31.9,38.8 C35.8,42.7 37.9,47.9 37.9,53.4 L37.9,116.6 C37.9,120.7 34.6,124 30.5,124 Z M13.9,5.7 C14.6,6 15,6.7 15,7.5 L15,27 C15,32.5 12.9,37.7 9,41.6 C5.9,44.7 4.1,48.9 4.1,53.4 L4.1,116.6 C4.1,118.5 5.6,120.1 7.6,120.1 L30.5,120.1 C32.4,120.1 34,118.6 34,116.6 L34,53.3 C34,48.9 32.3,44.7 29.1,41.5 C25.2,37.6 23.1,32.4 23.1,26.9 L23.1,7.5 C23.1,6.7 23.5,6 24.2,5.7 L24.2,4 L13.9,4 L13.9,5.7 Z" id="Shape" fill="#802D1F"></path>
                            <path d="M26.1,9.5 L11.9,9.5 C10.8,9.5 9.9,8.6 9.9,7.5 C9.9,6.4 10.8,5.5 11.9,5.5 L26.1,5.5 C27.2,5.5 28.1,6.4 28.1,7.5 C28.1,8.6 27.2,9.5 26.1,9.5 Z" id="Shape" fill="#62345B"></path>
                        </g>
                        <circle id="Oval" fill="#FFFFFF" cx="14.6" cy="83.8" r="2.7"></circle>
                        <circle id="Oval" fill="#FFFFFF" cx="23.4" cy="83.8" r="2.7"></circle>
                        <circle id="Oval" fill="#FFFFFF" cx="19" cy="89.3" r="2.7"></circle>
                        <path d="M19,82.1 C18.7,82.1 18.5,81.9 18.5,81.6 L18.5,77.2 C18.5,76.9 18.7,76.7 19,76.7 C19.3,76.7 19.5,76.9 19.5,77.2 L19.5,81.6 C19.5,81.9 19.3,82.1 19,82.1 Z" id="Shape" fill="#FFFFFF"></path>
                    </g>
                    <g id="Group" transform="translate(0.000000, 16.000000)">
                        <g>
                            <path d="M30.4,122 L7.5,122 C4.5,122 2,119.6 2,116.5 L2,53.3 C2,48.4 4,43.6 7.5,40.1 C11,36.6 13,31.9 13,26.9 L13,7.5 L11.9,7.5 L11.9,2 L26,2 L26,7.5 L24.9,7.5 L24.9,27 C24.9,31.9 26.9,36.7 30.4,40.2 C33.9,43.7 35.9,48.4 35.9,53.4 L35.9,116.6 C35.8,119.6 33.4,122 30.4,122 Z" id="Shape" fill="#98D1A2"></path>
                            <path d="M30.4,122 L7.5,122 C4.5,122 2,119.6 2,116.5 L2,53.3 C2,48.4 4,43.6 7.5,40.1 C11,36.6 13,31.9 13,26.9 L13,18.3 L25,18.3 L25,27 C25,31.9 27,36.7 30.5,40.2 C34,43.7 36,48.4 36,53.4 L36,116.6 C35.8,119.6 33.4,122 30.4,122 Z" id="Shape" fill="#E5D283"></path>
                            <g opacity="0.2" transform="translate(20.000000, 2.000000)" fill="#62345B" id="Shape">
                                <g>
                                    <path d="M10.4,38.2 C6.9,34.7 4.9,30 4.9,25 L4.9,0 L0.5,0 L0.5,25 C0.5,29.9 1.4,34.7 4.9,38.2 C8.4,41.7 8.2,46.4 8.2,51.4 L8.2,114.6 C8.2,117.6 5.8,120.1 2.7,120.1 L10.3,120.1 C13.3,120.1 15.8,117.7 15.8,114.6 L15.8,51.3 C15.8,46.4 13.9,41.7 10.4,38.2 Z"></path>
                                </g>
                            </g>
                            <rect id="Rectangle-path" fill="#B3E1E7" x="2" y="67.4" width="33.8" height="32.7"></rect>
                            <path d="M35.8,102.2 L2,102.2 C0.9,102.2 0,101.3 0,100.2 C0,99.1 0.9,98.2 2,98.2 L35.8,98.2 C36.9,98.2 37.8,99.1 37.8,100.2 C37.8,101.3 36.9,102.2 35.8,102.2 Z" id="Shape" fill="#62345B"></path>
                            <path d="M35.8,69.4 L2,69.4 C0.9,69.4 0,68.5 0,67.4 C0,66.3 0.9,65.4 2,65.4 L35.8,65.4 C36.9,65.4 37.8,66.3 37.8,67.4 C37.8,68.5 36.9,69.4 35.8,69.4 Z" id="Shape" fill="#62345B"></path>
                            <path d="M30.4,124 L7.5,124 C3.4,124 0,120.7 0,116.5 L0,53.3 C0,47.8 2.1,42.6 6,38.7 C9.1,35.6 10.9,31.4 10.9,26.9 L10.9,9.2 C10.3,8.9 9.8,8.2 9.8,7.4 L9.8,2 C9.8,0.9 10.7,0 11.8,0 L26,0 C27.1,0 28,0.9 28,2 L28,7.5 C28,8.3 27.6,9 26.9,9.3 L26.9,27 C26.9,31.4 28.6,35.6 31.8,38.8 C35.7,42.7 37.8,47.9 37.8,53.4 L37.8,116.6 C37.8,120.7 34.5,124 30.4,124 Z M13.8,5.7 C14.4,6 14.9,6.7 14.9,7.5 L14.9,27 C14.9,32.5 12.8,37.7 8.9,41.6 C5.8,44.7 4,48.9 4,53.4 L4,116.6 C4,118.5 5.5,120.1 7.5,120.1 L30.4,120.1 C32.3,120.1 33.9,118.6 33.9,116.6 L33.9,53.3 C33.9,48.9 32.2,44.7 29,41.5 C25.1,37.6 23,32.4 23,26.9 L23,7.5 C23,6.7 23.4,6 24.1,5.7 L24.1,4 L13.8,4 L13.8,5.7 Z" id="Shape" fill="#802D1F"></path>
                            <path d="M26,9.5 L11.8,9.5 C10.7,9.5 9.8,8.6 9.8,7.5 C9.8,6.4 10.7,5.5 11.8,5.5 L26,5.5 C27.1,5.5 28,6.4 28,7.5 C28,8.6 27.1,9.5 26,9.5 Z" id="Shape" fill="#62345B"></path>
                        </g>
                        <circle id="Oval" fill="#FFFFFF" cx="14.5" cy="83.8" r="2.7"></circle>
                        <circle id="Oval" fill="#FFFFFF" cx="23.3" cy="83.8" r="2.7"></circle>
                        <circle id="Oval" fill="#FFFFFF" cx="18.9" cy="89.3" r="2.7"></circle>
                        <path d="M18.9,82.1 C18.6,82.1 18.4,81.9 18.4,81.6 L18.4,77.2 C18.4,76.9 18.6,76.7 18.9,76.7 C19.2,76.7 19.4,76.9 19.4,77.2 L19.4,81.6 C19.4,81.9 19.2,82.1 18.9,82.1 Z" id="Shape" fill="#FFFFFF"></path>
                    </g>
                </g>
                <g id="if_Drinks-35_1200420" transform="translate(106.000000, 192.000000)" fill-rule="nonzero">
                    <g id="Group">
                        <path d="M39.4,122 L8.6,122 C5.4,122 2.9,119.4 2.9,116.3 L2.9,54.4 C2.9,49.6 5.6,45.2 9.9,43 C11.7,42.1 13.2,40.9 14.3,39.3 C16.3,36.7 17,33.3 16.6,30 L16.5,29 C15.9,24.5 16.3,17.1 17.3,12.7 L17.7,11 L15.4,11 L15.4,2 L32.5,2 L32.5,11.1 L30.2,11.1 L30.6,12.8 C31.6,17.2 32,24.6 31.4,29.1 L31.3,30.1 C30.9,33.4 31.6,36.8 33.6,39.4 C34.8,40.9 36.3,42.2 38,43.1 C42.3,45.3 45,49.7 45,54.5 L45,116.4 C45.1,119.4 42.6,122 39.4,122 Z" id="Shape" fill="#FBB161"></path>
                        <rect id="Rectangle-path" fill="#645F5A" x="2.9" y="64.9" width="42.3" height="49.1"></rect>
                        <circle id="Oval" fill="#FFFFFF" cx="24" cy="87.6" r="8.6"></circle>
                        <path d="M31.4,30.1 C32,25.5 31.7,17.4 30.7,12.8 L30.3,11.1 L32.6,11.1 L32.6,2 L15.4,2 L15.4,11.1 L17.7,11.1 L17.3,12.8 C16.3,17.3 16,25.5 16.6,30.1 C16.8,31.4 16.7,32.7 16.5,34 L31.4,34 C31.2,32.7 31.2,31.4 31.4,30.1 Z" id="Shape" fill="#645F5A"></path>
                        <g opacity="0.2" transform="translate(26.000000, 2.000000)" fill="#62345B" id="Shape">
                            <g>
                                <path d="M12.1,41 C10.3,40.1 8.8,38.9 7.7,37.3 C5.7,34.7 5,31.3 5.4,28 L5.5,27 C6.1,22.5 5.7,15.1 4.7,10.7 L4.3,9 L6.6,9 L6.6,0 L3.2,0 L3.2,9.1 L0.9,9.1 L1.3,10.8 C2.3,15.2 2.7,22.6 2.1,27.1 L2,28.1 C1.6,31.4 2.1,34.9 4.3,37.4 C8.5,42.2 12.3,44.4 12.3,52.4 L12.3,114.3 C12.3,117.5 9.7,120 6.6,120 L13.5,120 C16.7,120 19.2,117.4 19.2,114.3 L19.2,52.4 C19.1,47.6 16.4,43.2 12.1,41 Z"></path>
                            </g>
                        </g>
                        <path d="M39.4,124 L8.6,124 C4.3,124 0.9,120.5 0.9,116.3 L0.9,54.4 C0.9,48.8 4,43.7 9,41.2 C10.5,40.5 11.7,39.4 12.7,38.1 C14.3,36 15,33.2 14.6,30.3 L14.5,29.3 C13.9,24.8 14.3,17.8 15.2,13.1 C14.2,13 13.4,12.1 13.4,11.1 L13.4,2 C13.4,0.9 14.3,0 15.4,0 L32.5,0 C33.6,0 34.5,0.9 34.5,2 L34.5,11.1 C34.5,12.1 33.7,13 32.7,13.1 C33.6,17.8 33.9,24.8 33.4,29.3 L33.3,30.3 C32.9,33.2 33.6,36.1 35.2,38.1 C36.2,39.4 37.5,40.5 38.9,41.2 C43.9,43.7 47,48.7 47,54.4 L47,116.3 C47.1,120.5 43.7,124 39.4,124 Z M17.4,9.1 L17.7,9.1 C18.3,9.1 18.9,9.4 19.3,9.9 C19.7,10.4 19.8,11 19.7,11.6 L19.3,13.3 C18.3,17.5 18,24.6 18.5,28.9 L18.6,29.9 C19.1,33.9 18.1,37.7 15.9,40.7 C14.5,42.5 12.8,43.9 10.8,44.9 C7.1,46.7 4.9,50.4 4.9,54.5 L4.9,116.4 C4.9,118.4 6.6,120.1 8.6,120.1 L39.5,120.1 C41.5,120.1 43.2,118.4 43.2,116.4 L43.2,54.4 C43.2,50.3 40.9,46.6 37.3,44.8 C35.3,43.8 33.5,42.3 32.2,40.6 C30,37.6 29,33.8 29.5,29.8 L29.6,28.8 C30.1,24.5 29.8,17.4 28.8,13.2 L28.4,11.5 C28.3,10.9 28.4,10.3 28.8,9.8 C29.2,9.3 29.8,9 30.4,9 L30.7,9 L30.7,4 L17.4,4 L17.4,9.1 Z" id="Shape" fill="#802D1F"></path>
                        <path d="M32.6,13.1 L15.4,13.1 C14.3,13.1 13.4,12.2 13.4,11.1 C13.4,10 14.3,9.1 15.4,9.1 L32.5,9.1 C33.6,9.1 34.5,10 34.5,11.1 C34.5,12.2 33.7,13.1 32.6,13.1 Z" id="Shape" fill="#62345B"></path>
                    </g>
                    <rect id="Rectangle-path" fill="#FFFFFF" x="13.7" y="99.1" width="20.6" height="5.7"></rect>
                    <path d="M32.1,79.5 L36.1,75.5 C29.4,68.8 18.5,68.8 11.9,75.5 L15.9,79.5 C20.4,75 27.6,75 32.1,79.5 Z" id="Shape" fill="#FFFFFF"></path>
                </g>
                <g id="Group" transform="translate(136.000000, 208.000000)" fill-rule="nonzero">
                    <path d="M44.3,115.4 L2.6,115.4 L2.6,39.8 C2.6,36.3 4.4,33.1 7.4,31.2 L12.5,28.1 C15.5,26.3 17.3,23 17.3,19.5 L17.3,8.3 L16.2,8.3 L16.2,2.6 L30.9,2.6 L30.9,8.2 L29.8,8.2 L29.8,19.5 C29.8,23 31.6,26.2 34.6,28.1 L39.7,31.2 C42.7,33 44.5,36.3 44.5,39.8 L44.5,115.4 L44.3,115.4 Z" id="Shape" fill="#F1F9FE"></path>
                    <rect id="Rectangle-path" fill="#D8D7D1" x="16.2" y="2.6" width="14.7" height="5.6"></rect>
                    <path d="M44.3,115.4 L2.6,115.4 L2.6,39.8 C2.6,36.3 4.4,33.1 7.4,31.2 L12.5,28.1 C15.5,26.3 17.3,23 17.3,19.5 L29.7,19.5 C29.7,23 31.5,26.2 34.5,28.1 L39.6,31.2 C42.6,33 44.4,36.3 44.4,39.8 L44.4,115.4 L44.3,115.4 Z" id="Shape" fill="#B3E1E7"></path>
                    <g opacity="0.2" transform="translate(26.000000, 2.000000)" fill="#62345B" id="Shape">
                        <path d="M18.3,37.8 C18.3,34.3 16.5,31.1 13.5,29.2 L8.4,26.1 C5.4,24.3 3.6,21 3.6,17.5 L3.6,6.3 L4.7,6.3 L4.7,0.6 L1.3,0.6 L1.3,6.2 L0.2,6.2 L0.2,17.5 C0.2,21 -0.2,25.4 2.7,27.2 L7.8,30.3 C10.8,32.1 12.6,35.4 12.6,38.9 L12.6,113.3 L18.2,113.3 L18.2,37.8 L18.3,37.8 Z"></path>
                    </g>
                    <rect id="Rectangle-path" fill="#645F5A" x="13.3" y="92.8" width="20.3" height="5.6"></rect>
                    <rect id="Rectangle-path" fill="#54C6D8" x="10" y="47.2" width="27.1" height="6.8"></rect>
                    <rect id="Rectangle-path" fill="#54C6D8" x="14.5" y="59.6" width="18" height="4.5"></rect>
                    <path d="M44.3,117.4 L2.6,117.4 C1.5,117.4 0.6,116.5 0.6,115.4 L0.6,39.8 C0.6,35.6 2.8,31.7 6.3,29.5 L11.4,26.4 C13.8,24.9 15.2,22.3 15.2,19.5 L15.2,10 C14.5,9.7 14.1,9 14.1,8.2 L14.1,2.6 C14.1,1.5 15,0.6 16.1,0.6 L30.8,0.6 C31.9,0.6 32.8,1.5 32.8,2.6 L32.8,8.2 C32.8,9 32.3,9.7 31.7,10 L31.7,19.5 C31.7,22.3 33.2,24.9 35.5,26.4 L40.6,29.5 C44.1,31.7 46.3,35.6 46.3,39.8 L46.3,115.3 C46.3,116.5 45.4,117.4 44.3,117.4 Z M42.3,113.4 L42.3,39.8 C42.3,37 40.8,34.4 38.5,32.9 L33.4,29.8 C29.9,27.6 27.7,23.7 27.7,19.5 L27.7,8.3 C27.7,7.5 28.2,6.8 28.8,6.5 L28.8,4.7 L18.2,4.7 L18.2,6.5 C18.9,6.8 19.3,7.5 19.3,8.3 L19.3,19.6 C19.3,23.8 17.1,27.7 13.6,29.9 L8.5,33 C6.1,34.5 4.7,37.1 4.7,39.9 L4.7,113.4 L42.3,113.4 Z" id="Shape" fill="#802D1F"></path>
                    <path d="M30.8,10.3 L16.2,10.3 C15.1,10.3 14.2,9.4 14.2,8.3 C14.2,7.2 15.1,6.3 16.2,6.3 L30.9,6.3 C32,6.3 32.9,7.2 32.9,8.3 C32.9,9.4 31.9,10.3 30.8,10.3 Z" id="Shape" fill="#62345B"></path>
                </g>
                <g id="if_Drinks-19_1200403" transform="translate(35.000000, 256.500000) scale(-1, 1) translate(-35.000000, -256.500000) translate(19.000000, 226.000000)" fill-rule="nonzero">
                    <g id="Group" transform="translate(10.000000, 0.000000)">
                        <path d="M20.8195122,10.8926829 C20.8195122,16.3121951 16.4195122,20.7121951 11,20.7121951 L11.3219512,10.7317073 L1.12682927,10.8926829 C1.1804878,5.47317073 5.5804878,1.07317073 11,1.07317073 C16.4195122,1.07317073 20.8195122,5.47317073 20.8195122,10.8926829 Z" id="Shape" fill="#E5DC35"></path>
                        <path d="M11,21.8390244 C10.4097561,21.8390244 9.92682927,21.3560976 9.92682927,20.7658537 C9.92682927,20.1756098 10.4097561,19.6926829 11,19.6926829 C15.8292683,19.6926829 19.7463415,15.7756098 19.7463415,10.9463415 C19.7463415,6.11707317 15.8292683,2.2 11,2.2 C6.17073171,2.2 2.25365854,6.11707317 2.25365854,10.9463415 C2.25365854,11.5365854 1.77073171,12.0195122 1.1804878,12.0195122 C0.590243902,12.0195122 0.107317073,11.5365854 0.107317073,10.9463415 C0.107317073,4.88292683 4.9902439,0 11,0 C17.0097561,0 21.8926829,4.88292683 21.8926829,10.8926829 C21.8926829,16.902439 17.0097561,21.8390244 11,21.8390244 Z" id="Shape" fill="#802D1F"></path>
                        <g transform="translate(3.219512, 2.682927)" fill="#FFFFFF" id="Shape" opacity="0.7">
                            <g transform="translate(2.682927, 0.000000)">
                                <path d="M2.7902439,4.9902439 L0.751219512,2.95121951 C0.268292683,2.46829268 0.375609756,1.71707317 0.965853659,1.39512195 C1.66341463,0.965853659 2.41463415,0.643902439 3.2195122,0.482926829 C3.86341463,0.32195122 4.45365854,0.804878049 4.45365854,1.44878049 L4.45365854,4.29268293 C4.45365854,5.15121951 3.3804878,5.5804878 2.7902439,4.9902439 Z"></path>
                            </g>
                            <g transform="translate(8.048780, 0.000000)">
                                <path d="M0.375609756,4.29268293 L0.375609756,1.44878049 C0.375609756,0.804878049 0.965853659,0.32195122 1.6097561,0.482926829 C2.41463415,0.697560976 3.16585366,1.0195122 3.91707317,1.44878049 C4.45365854,1.77073171 4.56097561,2.52195122 4.13170732,3.00487805 L2.09268293,5.04390244 C1.44878049,5.5804878 0.375609756,5.15121951 0.375609756,4.29268293 Z"></path>
                            </g>
                            <g transform="translate(10.731707, 3.219512)">
                                <path d="M0.32195122,2.68292683 L2.36097561,0.643902439 C2.84390244,0.16097561 3.59512195,0.268292683 3.91707317,0.858536585 C4.34634146,1.55609756 4.66829268,2.30731707 4.82926829,3.11219512 C4.9902439,3.75609756 4.50731707,4.34634146 3.86341463,4.34634146 L1.0195122,4.34634146 C0.107317073,4.34634146 -0.32195122,3.27317073 0.32195122,2.68292683 Z"></path>
                            </g>
                            <g transform="translate(10.195122, 8.585366)">
                                <path d="M1.55609756,0.268292683 L4.4,0.268292683 C5.04390244,0.268292683 5.52682927,0.858536585 5.36585366,1.50243902 C5.15121951,2.30731707 4.82926829,3.05853659 4.4,3.8097561 C4.07804878,4.34634146 3.32682927,4.45365854 2.84390244,4.02439024 L0.804878049,1.98536585 C0.214634146,1.34146341 0.643902439,0.268292683 1.55609756,0.268292683 Z"></path>
                            </g>
                            <g transform="translate(8.048780, 10.731707)">
                                <path d="M2.09268293,0.751219512 L4.13170732,2.7902439 C4.61463415,3.27317073 4.50731707,4.02439024 3.91707317,4.34634146 C3.2195122,4.77560976 2.46829268,5.09756098 1.66341463,5.25853659 C1.0195122,5.4195122 0.429268293,4.93658537 0.429268293,4.29268293 L0.429268293,1.44878049 C0.375609756,0.590243902 1.44878049,0.107317073 2.09268293,0.751219512 Z"></path>
                            </g>
                            <g transform="translate(0.000000, 3.219512)">
                                <path d="M3.86341463,4.34634146 L1.0195122,4.34634146 C0.375609756,4.34634146 -0.107317073,3.75609756 0.0536585366,3.11219512 C0.268292683,2.30731707 0.590243902,1.55609756 1.0195122,0.804878049 C1.34146341,0.268292683 2.09268293,0.16097561 2.57560976,0.590243902 L4.61463415,2.62926829 C5.15121951,3.27317073 4.72195122,4.34634146 3.86341463,4.34634146 Z"></path>
                            </g>
                        </g>
                    </g>
                    <rect id="Rectangle-path" fill="#EAF3FB" x="2" y="10" width="20" height="49"></rect>
                    <path d="M16.986376,49 L7.01362398,49 C4.23433243,49 2,46.8215259 2,44.1117166 L2,10 L22,10 L22,44.1117166 C22,46.8215259 19.7656676,49 16.986376,49 Z" id="Shape" fill="#CC6453"></path>
                    <g id="Group" opacity="0.2" transform="translate(16.000000, 10.000000)" fill="#62345B">
                        <g id="Rectangle-path">
                            <rect x="0.218181818" y="0.159782609" width="5.50909091" height="48.8402174"></rect>
                        </g>
                    </g>
                    <g id="Group" opacity="0.7" transform="translate(3.000000, 10.000000)" fill="#FFFFFF">
                        <path d="M1.38,29.6785714 C0.72,29.6785714 0.18,29.1964286 0.18,28.6071429 L0.18,1.125 C0.18,0.535714286 0.72,0.0535714286 1.38,0.0535714286 C2.04,0.0535714286 2.58,0.535714286 2.58,1.125 L2.58,28.6071429 C2.58,29.1964286 2.04,29.6785714 1.38,29.6785714 Z" id="Shape"></path>
                    </g>
                    <path d="M20.9189189,61 L1.08108108,61 C0.486486486,61 0,60.5203762 0,59.9341693 L0,11.0658307 C0,10.4796238 0.486486486,10 1.08108108,10 L20.9189189,10 C21.5135135,10 22,10.4796238 22,11.0658307 L22,59.9341693 C22,60.5203762 21.5135135,61 20.9189189,61 Z M2.16216216,58.8683386 L19.8378378,58.8683386 L19.8378378,12.1316614 L2.16216216,12.1316614 L2.16216216,58.8683386 Z" id="Shape" fill="#802D1F"></path>
                    <g id="Group" transform="translate(8.000000, 37.000000)" fill="#FFFFFF" opacity="0.7">
                        <g transform="translate(5.142857, 0.000000)" id="Oval">
                            <circle cx="1.54285714" cy="1.48571429" r="1.02857143"></circle>
                        </g>
                        <g transform="translate(5.142857, 5.142857)" id="Oval">
                            <circle cx="1.54285714" cy="1.54285714" r="1.02857143"></circle>
                        </g>
                        <g transform="translate(0.000000, 5.142857)" id="Oval">
                            <circle cx="1.42857143" cy="1.54285714" r="1.02857143"></circle>
                        </g>
                    </g>
                </g>
            </g>
        </g>
    </g>
</svg>