<?xml version="1.0" encoding="UTF-8"?>
<svg width="255px" height="254px" viewBox="0 0 255 254" version="1.1" xmlns="http://www.w3.org/2000/svg" xmlns:xlink="http://www.w3.org/1999/xlink">
    <!-- Generator: Sketch 51.2 (57519) - http://www.bohemiancoding.com/sketch -->
    <title>drink-icon</title>
    <desc>Created with Sketch.</desc>
    <defs>
        <polygon id="path-1" points="0.0275868738 0.211054424 270.815207 0.211054424 270.815207 270.408297 0.0275868738 270.408297"></polygon>
        <path d="M254.323511,126.829219 C254.323511,196.800401 197.583716,253.520235 127.590699,253.520235 C57.5999417,253.520235 0.860147138,196.800401 0.860147138,126.829219 C0.860147138,56.8580378 57.5999417,0.138203578 127.590699,0.138203578 C197.583716,0.138203578 254.323511,56.8580378 254.323511,126.829219" id="path-3"></path>
    </defs>
    <g id="Page-1" stroke="none" stroke-width="1" fill="none" fill-rule="evenodd">
        <g id="Mindset" transform="translate(-385.000000, -99.000000)">
            <g id="drink-icon" transform="translate(377.000000, 90.000000)">
                <g id="Group">
                    <g id="Group-3">
                        <mask id="mask-2" fill="white">
                            <use xlink:href="#path-1"></use>
                        </mask>
                        <g id="Clip-2"></g>
                    </g>
                    <g id="last-word" transform="translate(8.000000, 9.000000)">
                        <mask id="mask-4" fill="white">
                            <use xlink:href="#path-3"></use>
                        </mask>
                        <use id="Mask" fill="#802D1F" xlink:href="#path-3"></use>
                    </g>
                </g>
                <g id="Group-4" transform="translate(101.000000, 37.000000)" fill-rule="nonzero">
                    <g id="Group" transform="translate(38.475983, 0.000000)">
                        <path d="M45.818756,24.4985195 C45.818756,36.1741664 36.339518,45.6534044 24.6638712,45.6534044 L25.3574739,24.1517182 L3.39338583,24.4985195 C3.5089863,12.8228727 12.9882243,3.34363467 24.6638712,3.34363467 C36.339518,3.34363467 45.818756,12.8228727 45.818756,24.4985195 Z" id="Shape" fill="#E5DC35"></path>
                        <path d="M24.6419214,49.06874 C23.3157392,49.06874 22.2306811,47.9836819 22.2306811,46.6574997 C22.2306811,45.3313176 23.3157392,44.2462594 24.6419214,44.2462594 C35.4925027,44.2462594 44.2935298,35.4452323 44.2935298,24.594651 C44.2935298,13.7440697 35.4925027,4.94304261 24.6419214,4.94304261 C13.7913401,4.94304261 4.99031299,13.7440697 4.99031299,24.594651 C4.99031299,25.9208332 3.90525486,27.0058913 2.57907269,27.0058913 C1.25289053,27.0058913 0.167832397,25.9208332 0.167832397,24.594651 C0.167832397,10.9711433 11.1389757,0 24.6419214,0 C38.1448671,0 49.1160104,10.9711433 49.1160104,24.474089 C49.1160104,37.9770347 38.1448671,49.06874 24.6419214,49.06874 Z" id="Shape" fill="#652419"></path>
                        <g transform="translate(7.901804, 7.740986)" fill="#FFFFFF" id="Shape" opacity="0.7">
                            <g transform="translate(6.709360, 0.000000)">
                                <path d="M5.08188705,9.82150607 L0.689069431,5.42868845 C-0.351334743,4.38828427 -0.120133815,2.76987778 1.15147129,2.076275 C2.65427732,1.15147129 4.27268381,0.457868504 6.00669076,0.111067112 C7.39389633,-0.235734279 8.66550143,0.804669895 8.66550143,2.19187546 L8.66550143,8.31870004 C8.66550143,10.1683075 6.35349216,11.0931112 5.08188705,9.82150607 Z"></path>
                            </g>
                            <g transform="translate(18.037072, 0.000000)">
                                <path d="M0.11220045,8.31870004 L0.11220045,2.19187546 C0.11220045,0.804669895 1.38380555,-0.235734279 2.77101112,0.111067112 C4.50501807,0.573468967 6.12342457,1.26707175 7.74183106,2.19187546 C8.8978357,2.88547824 9.12903662,4.50388474 8.20423291,5.54428891 L3.81141529,9.93710653 C2.42420973,11.0931112 0.11220045,10.1683075 0.11220045,8.31870004 Z"></path>
                            </g>
                            <g transform="translate(23.120093, 6.703694)">
                                <path d="M0.693602783,5.08302039 L5.08642041,0.690202769 C6.12682458,-0.350201405 7.74523107,-0.119000477 8.43883386,1.15260462 C9.36363757,2.65541065 10.0572403,4.27381715 10.4040417,6.0078241 C10.7508431,7.39502967 9.71043896,8.66663477 8.32323339,8.66663477 L2.19640881,8.66663477 C0.231200928,8.66663477 -0.693602783,6.35462549 0.693602783,5.08302039 Z"></path>
                            </g>
                            <g transform="translate(22.893425, 17.566737)">
                                <path d="M2.42307639,0.578002319 L8.54990097,0.578002319 C9.93710653,0.578002319 10.9775107,1.84960742 10.6307093,3.23681299 C10.1683075,4.97081994 9.47470468,6.58922643 8.54990097,8.20763293 C7.85629818,9.36363757 6.23789169,9.59483849 5.19748752,8.67003478 L0.804669895,4.27721716 C-0.466935207,2.89001159 0.457868504,0.578002319 2.42307639,0.578002319 Z"></path>
                            </g>
                            <g transform="translate(18.037072, 23.120093)">
                                <path d="M3.81141529,0.689069431 L8.20423291,5.08188705 C9.24463709,6.12229123 9.01343616,7.74069772 7.74183106,8.4343005 C6.23902503,9.35910421 4.62061854,10.052707 2.88661158,10.3995084 C1.49940602,10.7463098 0.227800914,9.70590561 0.227800914,8.31870004 L0.227800914,2.19187546 C0.11220045,0.34226804 2.42420973,-0.698136134 3.81141529,0.689069431 Z"></path>
                            </g>
                            <g transform="translate(0.000000, 6.703694)">
                                <path d="M8.32323339,8.66663477 L2.19640881,8.66663477 C0.809203246,8.66663477 -0.231200928,7.39502967 0.115600464,6.0078241 C0.578002319,4.27381715 1.2716051,2.65541065 2.19640881,1.03700416 C2.89001159,-0.119000477 4.50841809,-0.350201405 5.54882226,0.574602305 L9.94163988,4.96741993 C11.0976445,6.35462549 10.1728408,8.66663477 8.32323339,8.66663477 Z"></path>
                            </g>
                        </g>
                    </g>
                    <g id="if_christmas-icon-glass_820690" transform="translate(0.000000, 22.480349)">
                        <path d="M39.7729258,167.733957 C37.2939384,166.02332 35.05498,164.127095 33.2882096,162.117904 C31.529309,164.127095 29.2824808,166.027354 26.8034934,167.737991 L39.7729258,167.737991 L39.7729258,167.733957 Z" id="Shape" fill="#E3FFFB"></path>
                        <path d="M26.8034934,167.737991 L39.7729258,167.737991 C37.2907566,166.026126 35.0524772,164.128539 33.2862428,162.117904 C31.5278757,164.128539 29.2817289,166.026126 26.8034934,167.737991 Z" id="Shape" fill="#FFFFFF"></path>
                        <path d="M9.51091703,90.1551618 C9.51091703,103.377839 20.2719793,114.131004 33.5043668,114.131004 C46.7367544,114.131004 57.4978166,103.377839 57.4978166,90.1551618 L57.4978166,38.0436681 L9.51091703,38.0436681 L9.51091703,90.1551618 Z" id="Shape" fill="#E7EC72"></path>
                        <rect id="Rectangle-path" fill="#E3FFFB" x="9.51091703" y="8.2139738" width="47.9868996" height="30.2620087"></rect>
                        <circle id="Oval" fill="#FFFFFF" cx="43.6637555" cy="55.768559" r="5.62008734"></circle>
                        <circle id="Oval" fill="#FFFFFF" cx="39.7729258" cy="74.790393" r="5.62008734"></circle>
                        <path d="M62.6017076,167.535681 L61.1111908,167.535681 C52.7364734,167.535681 37.5173027,157.796116 37.2629212,153.506877 L37.2629212,153.407127 L37.2629212,121.754538 C52.9272596,119.775503 65.0859024,106.357168 65.0859024,90.1059393 L65.0859024,3.98998979 C65.0859024,1.78352543 63.3092063,0 61.1111908,0 L5.46522844,0 C3.26721293,0 1.49051685,1.78352543 1.49051685,3.98998979 L1.49051685,90.1059393 C1.49051685,106.353178 13.657109,119.775503 29.313498,121.754538 L29.313498,153.387177 C29.313498,153.395157 29.313498,153.403137 29.313498,153.411117 C29.313498,157.636516 13.9114906,167.539671 5.46522844,167.539671 L3.97471159,167.539671 C1.77669608,167.539671 0,169.323197 0,171.529661 C0,173.736125 1.77669608,175.519651 3.97471159,175.519651 L62.6017076,175.519651 C64.7997231,175.519651 66.5764192,173.736125 66.5764192,171.529661 C66.5764192,169.323197 64.7997231,167.535681 62.6017076,167.535681 Z M9.43994004,90.1059393 L9.43994004,7.97997957 L57.1364792,7.97997957 L57.1364792,90.1059393 C57.1364792,103.308816 46.4405303,114.045878 33.2882096,114.045878 C20.1358889,114.045878 9.43994004,103.304826 9.43994004,90.1059393 Z M26.7378849,167.535681 C29.2419532,165.843925 31.5115135,163.96863 33.2882096,161.981615 C35.0728551,163.96863 37.334466,165.847915 39.8385343,167.539671 L26.7378849,167.539671 L26.7378849,167.535681 Z" id="Shape" fill="#652419"></path>
                    </g>
                </g>
            </g>
        </g>
    </g>
</svg>