<svg height="200pt" viewBox="0 0 512 512" width="200pt" xmlns="http://www.w3.org/2000/svg"><path d="m512 256c0 141.386719-114.613281 256-256 256s-256-114.613281-256-256 114.613281-256 256-256 256 114.613281 256 256zm0 0" fill="#fc1f80"/><path d="m512 256c0-4.300781-.109375-8.570312-.320312-12.820312l-100.679688-100.679688-274.15625 273.5 94.84375 94.84375c8.003906.753906 16.113281 1.15625 24.3125 1.15625 141.386719 0 256-114.613281 256-256zm0 0" fill="#af1154"/><path d="m375.15625 416h-238.3125l-35.84375-273.5h310zm0 0" fill="#fff"/><path d="m411 142.5h-155.453125v273.5h119.609375zm0 0" fill="#e9edf5"/><path d="m123.5 203.476562 12.925781 98.632813c6.332031 48.296875 47.488281 84.414063 96.195313 84.414063h46.757812c48.707032 0 89.867188-36.117188 96.195313-84.414063l12.925781-98.632813zm0 0" fill="#ffd93b"/><path d="m255.546875 203.476562v183.042969h23.832031c48.707032 0 89.867188-36.113281 96.195313-84.410156l12.925781-98.632813zm0 0" fill="#fdba12"/><path d="m337.300781 270.46875-39.324219-8.613281c-10.859374-2.378907-17.738281-13.109375-15.359374-23.96875l8.613281-39.328125c2.375-10.863282 13.109375-17.738282 23.96875-15.359375l39.324219 8.613281c10.863281 2.375 17.738281 13.109375 15.359374 23.96875l-8.609374 39.328125c-2.378907 10.859375-13.113282 17.738281-23.972657 15.359375zm0 0" fill="#fedf81"/><path d="m291.59375 245.246094-35.359375 13.355468c-9.765625 3.6875-20.671875-1.238281-24.359375-11.003906l-13.355469-35.363281c-3.6875-9.765625 1.242188-20.671875 11.003907-24.359375l35.363281-13.351562c9.761719-3.6875 20.667969 1.238281 24.355469 11.003906l13.355468 35.363281c3.6875 9.765625-1.238281 20.667969-11.003906 24.355469zm0 0" fill="#fef8c3"/><path d="m302.597656 220.890625-13.355468-35.363281c-3.6875-9.765625-14.59375-14.691406-24.355469-11.003906l-9.339844 3.527343v80.769531c.230469-.074218.460937-.132812.6875-.21875l35.359375-13.355468c9.765625-3.6875 14.691406-14.589844 11.003906-24.355469zm0 0" fill="#fef49c"/></svg>