<?xml version="1.0" encoding="UTF-8"?>
<svg width="255px" height="254px" viewBox="0 0 255 254" version="1.1" xmlns="http://www.w3.org/2000/svg" xmlns:xlink="http://www.w3.org/1999/xlink">
    <!-- Generator: Sketch 51.2 (57519) - http://www.bohemiancoding.com/sketch -->
    <title>drink-icon</title>
    <desc>Created with Sketch.</desc>
    <defs>
        <polygon id="path-1" points="0.0275868738 0.211054424 270.815207 0.211054424 270.815207 270.408297 0.0275868738 270.408297"></polygon>
        <path d="M254.323511,126.829219 C254.323511,196.800401 197.583716,253.520235 127.590699,253.520235 C57.5999417,253.520235 0.860147138,196.800401 0.860147138,126.829219 C0.860147138,56.8580378 57.5999417,0.138203578 127.590699,0.138203578 C197.583716,0.138203578 254.323511,56.8580378 254.323511,126.829219" id="path-3"></path>
    </defs>
    <g id="Page-1" stroke="none" stroke-width="1" fill="none" fill-rule="evenodd">
        <g id="Cosmopolitan" transform="translate(-385.000000, -99.000000)">
            <g id="drink-icon" transform="translate(377.000000, 90.000000)">
                <g id="Group">
                    <g id="Group-3">
                        <mask id="mask-2" fill="white">
                            <use xlink:href="#path-1"></use>
                        </mask>
                        <g id="Clip-2"></g>
                    </g>
                    <g id="last-word" transform="translate(8.000000, 9.000000)">
                        <mask id="mask-4" fill="white">
                            <use xlink:href="#path-3"></use>
                        </mask>
                        <use id="Mask" fill="#802D1F" xlink:href="#path-3"></use>
                    </g>
                </g>
                <g id="Group-2" transform="translate(78.000000, 69.000000)" fill-rule="nonzero">
                    <g id="Group" transform="translate(96.414111, 19.543401) rotate(-180.000000) translate(-96.414111, -19.543401) translate(61.235990, 0.000000)">
                        <path d="M67.7504566,3.12694415 C67.7504566,21.106873 53.1580506,35.6992791 35.1781217,35.6992791 C17.1981928,35.6992791 2.60578679,21.106873 2.60578679,3.12694415 L67.7504566,3.12694415 Z" id="Shape" fill="#B9C54A"></path>
                        <g opacity="0.3" transform="translate(5.211574, 2.605787)" fill="#FFFFFF" id="Shape">
                            <path d="M29.9665481,20.0645583 C43.3863501,20.0645583 54.851812,11.9866192 59.8028069,0.521157358 L0.13028934,0.521157358 C5.08128424,11.9866192 16.5467461,20.0645583 29.9665481,20.0645583 Z"></path>
                        </g>
                        <path d="M35.1781217,38.3050658 C15.7650101,38.3050658 0,22.5400558 0,3.12694415 C0,1.69376141 1.17260406,0.521157358 2.60578679,0.521157358 C4.03896953,0.521157358 5.21157358,1.69376141 5.21157358,3.12694415 C5.21157358,19.6736903 18.6313756,33.0934923 35.1781217,33.0934923 C51.7248678,33.0934923 65.1446698,19.6736903 65.1446698,3.12694415 C65.1446698,1.69376141 66.3172739,0.521157358 67.7504566,0.521157358 C69.1836393,0.521157358 70.3562434,1.69376141 70.3562434,3.12694415 C70.3562434,22.5400558 54.5912333,38.3050658 35.1781217,38.3050658 Z" id="Shape" fill="#652419"></path>
                        <g transform="translate(9.120254, 5.211574)" fill="#FFFFFF" id="Shape" opacity="0.7">
                            <g transform="translate(27.360761, 6.514467)">
                                <path d="M6.38417764,2.21491877 L13.1592233,8.98996443 C14.7226954,10.5534365 14.3318274,13.028934 12.5077766,14.0712487 C10.1625685,15.5044314 7.68707104,16.5467461 5.08128424,17.1981928 C2.99665481,17.7193502 0.912025377,16.1558781 0.912025377,14.0712487 L0.912025377,4.56012689 C0.912025377,1.56347208 4.29954821,0.13028934 6.38417764,2.21491877 Z"></path>
                            </g>
                            <g transform="translate(10.423147, 6.514467)">
                                <path d="M13.419802,4.56012689 L13.419802,14.0712487 C13.419802,16.1558781 11.4654619,17.7193502 9.38083245,17.1981928 C6.77504566,16.5467461 4.16925887,15.5044314 1.82405075,14.0712487 C-8.32667268e-16,13.028934 -0.260578679,10.4231472 1.17260406,8.98996443 L7.94764972,2.21491877 C10.0322792,0.13028934 13.419802,1.56347208 13.419802,4.56012689 Z"></path>
                            </g>
                            <g>
                                <path d="M15.2438527,5.6024416 L8.46880707,12.3774873 C6.905335,13.9409593 4.42983755,13.5500913 3.38752283,11.7260406 C1.95434009,9.38083245 0.912025377,6.905335 0.260578679,4.29954821 C-0.260578679,2.21491877 1.3028934,0.13028934 3.38752283,0.13028934 L13.028934,0.13028934 C15.8952994,0.13028934 17.3284822,3.64810151 15.2438527,5.6024416 Z"></path>
                            </g>
                            <g transform="translate(35.178122, 0.000000)">
                                <path d="M3.90868019,0.13028934 L13.419802,0.13028934 C15.5044314,0.13028934 17.0679035,2.08462943 16.5467461,4.16925887 C15.8952994,6.77504566 14.8529847,9.38083245 13.419802,11.7260406 C12.3774873,13.5500913 9.77170047,13.81067 8.33851774,12.3774873 L1.56347208,5.6024416 C-0.390868019,3.64810151 1.04231472,0.13028934 3.90868019,0.13028934 Z"></path>
                            </g>
                        </g>
                    </g>
                    <g id="if_Drinks-03_1200391" transform="translate(0.000000, 28.663655)">
                        <polygon id="Shape" fill="#F1F9FE" points="53.9397866 65.4052485 103.970893 2.73607613 3.77839085 2.73607613"></polygon>
                        <polygon id="Shape" fill="#F99893" points="93.5477458 15.7650101 14.201538 15.7650101 53.9397866 65.4052485"></polygon>
                        <path d="M53.9397866,105.534365 C52.5066039,105.534365 51.3339998,104.361761 51.3339998,102.928578 L51.3339998,65.4052485 C51.3339998,63.9720658 52.5066039,62.7994617 53.9397866,62.7994617 C55.3729693,62.7994617 56.5455734,63.9720658 56.5455734,65.4052485 L56.5455734,102.928578 C56.5455734,104.361761 55.3729693,105.534365 53.9397866,105.534365 Z" id="Shape" fill="#652419"></path>
                        <path d="M78.9553398,105.534365 L28.9242334,105.534365 C27.4910507,105.534365 26.3184466,104.361761 26.3184466,102.928578 C26.3184466,101.495396 27.4910507,100.322792 28.9242334,100.322792 L79.0856291,100.322792 C80.5188119,100.322792 81.6914159,101.495396 81.6914159,102.928578 C81.6914159,104.361761 80.3885225,105.534365 78.9553398,105.534365 Z" id="Shape" fill="#652419"></path>
                        <path d="M53.9397866,68.0110353 C53.1580506,68.0110353 52.3763145,67.6201673 51.8551572,66.9687206 L1.82405075,4.29954821 C1.17260406,3.51781217 1.04231472,2.47549745 1.56347208,1.56347208 C2.08462943,0.651446698 2.86636547,0.13028934 3.90868019,0.13028934 L104.101182,0.13028934 C105.143497,0.13028934 106.055522,0.651446698 106.44639,1.56347208 C106.837258,2.47549745 106.706969,3.51781217 106.185812,4.29954821 L55.8941267,66.9687206 C55.5032587,67.6201673 54.7215226,68.0110353 53.9397866,68.0110353 Z M9.25054311,5.34186292 L53.9397866,61.2359896 L98.6290301,5.34186292 L9.25054311,5.34186292 Z" id="Shape" fill="#652419"></path>
                    </g>
                </g>
            </g>
        </g>
    </g>
</svg>