<?xml version="1.0" encoding="UTF-8"?>
<svg width="255px" height="254px" viewBox="0 0 255 254" version="1.1" xmlns="http://www.w3.org/2000/svg" xmlns:xlink="http://www.w3.org/1999/xlink">
    <!-- Generator: Sketch 51.2 (57519) - http://www.bohemiancoding.com/sketch -->
    <title>drink-icon</title>
    <desc>Created with Sketch.</desc>
    <defs>
        <polygon id="path-1" points="0.0275868738 0.211054424 270.815207 0.211054424 270.815207 270.408297 0.0275868738 270.408297"></polygon>
        <path d="M254.323511,126.829219 C254.323511,196.800401 197.583716,253.520235 127.590699,253.520235 C57.5999417,253.520235 0.860147138,196.800401 0.860147138,126.829219 C0.860147138,56.8580378 57.5999417,0.138203578 127.590699,0.138203578 C197.583716,0.138203578 254.323511,56.8580378 254.323511,126.829219" id="path-3"></path>
    </defs>
    <g id="Page-1" stroke="none" stroke-width="1" fill="none" fill-rule="evenodd">
        <g id="Innovation" transform="translate(-385.000000, -99.000000)">
            <g id="drink-icon" transform="translate(377.000000, 90.000000)">
                <g id="Group">
                    <g id="Group-3">
                        <mask id="mask-2" fill="white">
                            <use xlink:href="#path-1"></use>
                        </mask>
                        <g id="Clip-2"></g>
                    </g>
                    <g id="last-word" transform="translate(8.000000, 9.000000)">
                        <mask id="mask-4" fill="white">
                            <use xlink:href="#path-3"></use>
                        </mask>
                        <use id="Mask" fill="#802D1F" xlink:href="#path-3"></use>
                    </g>
                </g>
                <g id="if_Drinks-52_1200436" transform="translate(77.000000, 66.000000)" fill-rule="nonzero">
                    <g id="Group">
                        <g id="Shape">
                            <polygon fill="#F1F9FE" points="91.8473282 144.660419 22.9618321 144.660419 5.74045802 6.32061069 109.068702 6.32061069"></polygon>
                            <path d="M57.4045802,148.854962 C45.8138066,148.854962 32.9214682,150.548356 25.1908397,143.129771 C17.0324513,135.300693 14.351145,119.010753 14.351145,106.778626 L8.61068702,35.0229008 L106.198473,35.0229008 L100.458015,106.778626 C100.458015,119.162381 98.7947423,134.139038 90.4580153,141.984733 C82.7571985,149.231972 68.8437255,148.854962 57.4045802,148.854962 Z" fill="#E3B860"></path>
                            <g opacity="0.8" transform="translate(25.251908, 4.580153)" fill="#FFFFFF">
                                <path d="M12.0610687,126.870229 C8.90381679,126.870229 6.60763359,124.574046 6.32061069,121.416794 L0.580152672,6.60763359 C0.293129771,3.45038168 2.87633588,0.867175573 6.03358779,0.580152672 C9.19083969,0.293129771 11.7740458,2.87633588 12.0610687,6.03358779 L17.8015267,120.842748 C18.0885496,124 15.5053435,126.583206 12.3480916,126.870229 C12.3480916,126.870229 12.0610687,126.870229 12.0610687,126.870229 Z"></path>
                            </g>
                            <g opacity="0.2" transform="translate(77.496183, 6.320611)" fill="#62345B">
                                <g>
                                    <polygon points="8.61068702 0 0 138.339808 14.351145 138.339808 31.5725191 0"></polygon>
                                </g>
                            </g>
                            <path d="M91.8473282,149.832061 L22.9618321,149.832061 C20.0916031,149.832061 17.5083969,148.219451 17.221374,146.203688 L0,5.10027787 C0,3.89082007 0.287022901,2.88293857 1.4351145,2.07663337 C2.58320611,1.27032817 4.01832061,0.867175573 5.74045802,0.867175573 L109.068702,0.867175573 C110.79084,0.867175573 112.225954,1.27032817 113.374046,2.07663337 C114.522137,2.88293857 115.096183,4.09239637 114.80916,5.10027787 L97.5877863,146.203688 C97.3007634,148.219451 94.7175573,149.832061 91.8473282,149.832061 Z M28.1282443,141.769009 L86.3938931,141.769009 L102.754198,8.72865126 L12.0549618,8.72865126 L28.1282443,141.769009 Z" fill="#652419"></path>
                        </g>
                    </g>
                </g>
            </g>
        </g>
    </g>
</svg>