<?xml version="1.0" encoding="UTF-8"?>
<svg width="255px" height="254px" viewBox="0 0 255 254" version="1.1" xmlns="http://www.w3.org/2000/svg" xmlns:xlink="http://www.w3.org/1999/xlink">
    <!-- Generator: Sketch 51.2 (57519) - http://www.bohemiancoding.com/sketch -->
    <title>drink-icon</title>
    <desc>Created with Sketch.</desc>
    <defs>
        <polygon id="path-1" points="0.0275868738 0.211054424 270.815207 0.211054424 270.815207 270.408297 0.0275868738 270.408297"></polygon>
        <path d="M254.323511,126.829219 C254.323511,196.800401 197.583716,253.520235 127.590699,253.520235 C57.5999417,253.520235 0.860147138,196.800401 0.860147138,126.829219 C0.860147138,56.8580378 57.5999417,0.138203578 127.590699,0.138203578 C197.583716,0.138203578 254.323511,56.8580378 254.323511,126.829219" id="path-3"></path>
    </defs>
    <g id="Page-1" stroke="none" stroke-width="1" fill="none" fill-rule="evenodd">
        <g id="Machine-Learning" transform="translate(-385.000000, -99.000000)">
            <g id="drink-icon" transform="translate(377.000000, 90.000000)">
                <g id="Group">
                    <g id="Group-3">
                        <mask id="mask-2" fill="white">
                            <use xlink:href="#path-1"></use>
                        </mask>
                        <g id="Clip-2"></g>
                    </g>
                    <g id="last-word" transform="translate(8.000000, 9.000000)">
                        <mask id="mask-4" fill="white">
                            <use xlink:href="#path-3"></use>
                        </mask>
                        <use id="Mask" fill="#802D1F" xlink:href="#path-3"></use>
                    </g>
                </g>
                <g id="if_Drinks-49_1200439" transform="translate(75.000000, 57.000000)" fill-rule="nonzero">
                    <g id="Group" opacity="0.5">
                        <g>
                            <path d="M38.4489796,154.467742 L9.48576799,154.467742 C5.69146079,154.467742 2.52953813,151.429032 2.52953813,147.504032 L2.52953813,67.4846774 C2.52953813,61.2806452 5.05907626,55.2032258 9.48576799,50.7717742 C13.9124597,46.4669355 16.4419979,40.3895161 16.4419979,34.1854839 L16.4419979,9.49596774 L15.0507519,9.49596774 L15.0507519,2.53225806 L32.8839957,2.53225806 L32.8839957,9.49596774 L31.6192266,9.49596774 L31.6192266,34.1854839 C31.6192266,40.3895161 34.1487648,46.4669355 38.5754565,50.8983871 C43.0021482,55.3298387 45.5316864,61.2806452 45.5316864,67.6112903 L45.5316864,147.630645 C45.4052095,151.429032 42.2432868,154.467742 38.4489796,154.467742 Z" id="Shape" fill="#98D1A2"></path>
                            <path d="M38.4489796,154.467742 L9.48576799,154.467742 C5.69146079,154.467742 2.52953813,151.429032 2.52953813,147.504032 L2.52953813,67.4846774 C2.52953813,61.2806452 5.05907626,55.2032258 9.48576799,50.7717742 C13.9124597,46.4669355 16.4419979,40.3895161 16.4419979,34.1854839 L16.4419979,23.2967742 L31.6192266,23.2967742 L31.6192266,34.1854839 C31.6192266,40.3895161 34.1487648,46.4669355 38.5754565,50.8983871 C43.0021482,55.3298387 45.5316864,61.2806452 45.5316864,67.6112903 L45.5316864,147.630645 C45.4052095,151.429032 42.2432868,154.467742 38.4489796,154.467742 Z" id="Shape" fill="#E5D283"></path>
                            <g opacity="0.2" transform="translate(25.295381, 2.532258)" fill="#62345B" id="Shape">
                                <g>
                                    <path d="M13.1535983,48.366129 C8.72690655,43.9346774 6.32384533,37.8572581 6.32384533,31.6532258 L6.32384533,0 L0.758861439,0 L0.758861439,31.6532258 C0.758861439,37.8572581 1.8971536,43.9346774 6.32384533,48.366129 C10.7505371,52.7975806 10.4975832,58.7483871 10.4975832,65.0790323 L10.4975832,145.098387 C10.4975832,148.896774 7.46213749,152.062097 3.54135338,152.062097 L13.1535983,152.062097 C16.9479055,152.062097 20.1098281,149.023387 20.1098281,145.098387 L20.1098281,64.9524194 C20.1098281,58.7483871 17.58029,52.7975806 13.1535983,48.366129 Z"></path>
                                </g>
                            </g>
                            <rect id="Rectangle-path" fill="#AE516E" x="2.52953813" y="85.3370968" width="42.7491944" height="41.4024194"></rect>
                            <path d="M45.4052095,129.398387 L2.52953813,129.398387 C1.13829216,129.398387 0,128.258871 0,126.866129 C0,125.473387 1.13829216,124.333871 2.52953813,124.333871 L45.2787325,124.333871 C46.6699785,124.333871 47.8082707,125.473387 47.8082707,126.866129 C47.8082707,128.258871 46.7964554,129.398387 45.4052095,129.398387 Z" id="Shape" fill="#62345B"></path>
                            <path d="M45.4052095,87.8693548 L2.52953813,87.8693548 C1.13829216,87.8693548 0,86.7298387 0,85.3370968 C0,83.9443548 1.13829216,82.8048387 2.52953813,82.8048387 L45.2787325,82.8048387 C46.6699785,82.8048387 47.8082707,83.9443548 47.8082707,85.3370968 C47.8082707,86.7298387 46.7964554,87.8693548 45.4052095,87.8693548 Z" id="Shape" fill="#62345B"></path>
                            <path d="M38.4489796,157 L9.48576799,157 C4.30021482,157 0,152.821774 0,147.504032 L0,67.4846774 C0,60.5209677 2.65601504,53.9370968 7.58861439,48.9991935 C11.6358754,45.0741935 13.9124597,39.7564516 13.9124597,34.1854839 L13.9124597,11.6483871 C13.1535983,11.2685484 12.5212137,10.3822581 12.5212137,9.36935484 L12.5212137,2.53225806 C12.5212137,1.13951613 13.6595059,0 15.0507519,0 L32.8839957,0 C34.2752417,0 35.4135338,1.13951613 35.4135338,2.53225806 L35.4135338,9.49596774 C35.4135338,10.508871 34.9076262,11.3951613 34.0222879,11.775 L34.0222879,34.1854839 C34.0222879,39.7564516 36.1723953,45.0741935 40.2196563,49.1258065 C45.1522556,54.0637097 47.8082707,60.6475806 47.8082707,67.6112903 L47.8082707,147.630645 C47.9347476,152.821774 43.6345328,157 38.4489796,157 Z M17.58029,7.21693548 C18.3391515,7.59677419 18.971536,8.48306452 18.971536,9.49596774 L18.971536,34.1854839 C18.971536,41.1491935 16.3155209,47.7330645 11.3829216,52.6709677 C7.46213749,56.5959677 5.18555317,61.9137097 5.18555317,67.6112903 L5.18555317,147.630645 C5.18555317,150.03629 7.08270677,152.062097 9.6122449,152.062097 L38.5754565,152.062097 C40.9785177,152.062097 43.0021482,150.162903 43.0021482,147.630645 L43.0021482,67.4846774 C43.0021482,61.9137097 40.8520408,56.5959677 36.8047798,52.5443548 C31.8721805,47.6064516 29.2161654,41.0225806 29.2161654,34.058871 L29.2161654,9.49596774 C29.0896885,8.48306452 29.5955961,7.59677419 30.3544576,7.21693548 L30.3544576,5.06451613 L17.58029,5.06451613 L17.58029,7.21693548 Z" id="Shape" fill="#652419"></path>
                            <path d="M32.8839957,12.0282258 L15.0507519,12.0282258 C13.6595059,12.0282258 12.5212137,10.8887097 12.5212137,9.49596774 C12.5212137,8.10322581 13.6595059,6.96370968 15.0507519,6.96370968 L32.8839957,6.96370968 C34.2752417,6.96370968 35.4135338,8.10322581 35.4135338,9.49596774 C35.4135338,10.8887097 34.4017186,12.0282258 32.8839957,12.0282258 Z" id="Shape" fill="#62345B"></path>
                        </g>
                        <g transform="translate(14.980487, 102.556452)" fill="#FFFFFF" id="Oval">
                            <ellipse cx="3.48514142" cy="3.54516129" rx="3.41487648" ry="3.41854839"></ellipse>
                        </g>
                        <g transform="translate(25.295381, 102.556452)" fill="#FFFFFF" id="Oval">
                            <ellipse cx="4.17373792" cy="3.54516129" rx="3.41487648" ry="3.41854839"></ellipse>
                        </g>
                        <g transform="translate(20.236305, 108.887097)" fill="#FFFFFF" id="Oval">
                            <ellipse cx="3.7943072" cy="4.17822581" rx="3.41487648" ry="3.41854839"></ellipse>
                        </g>
                        <g transform="translate(22.765843, 96.225806)" fill="#FFFFFF" id="Shape">
                            <path d="M1.26476907,7.7233871 C0.885338346,7.7233871 0.632384533,7.47016129 0.632384533,7.09032258 L0.632384533,1.51935484 C0.632384533,1.13951613 0.885338346,0.886290323 1.26476907,0.886290323 C1.64419979,0.886290323 1.8971536,1.13951613 1.8971536,1.51935484 L1.8971536,7.09032258 C1.8971536,7.47016129 1.51772288,7.7233871 1.26476907,7.7233871 Z"></path>
                        </g>
                    </g>
                    <g id="Group" transform="translate(34.176871, 36.312925)">
                        <path d="M2.53849946,33.6094813 C2.53849946,56.4385629 20.9426205,74.8286565 43.7891156,74.8286565 C66.6356108,74.8286565 85.0397318,56.4385629 85.0397318,33.6094813 C85.0397318,21.4339711 79.8358079,10.5267432 71.4587597,3.04387755 L16.1194716,3.04387755 C7.74242335,10.5267432 2.53849946,21.4339711 2.53849946,33.6094813 Z" id="Shape" fill="#EAF3FB"></path>
                        <path d="M43.7891156,74.8286565 C66.5086858,74.8286565 85.0397318,56.4385629 85.0397318,33.6094813 L2.53849946,33.6094813 C2.53849946,56.4385629 20.9426205,74.8286565 43.7891156,74.8286565 Z" id="Shape" fill="#E5D283"></path>
                        <g opacity="0.15" transform="translate(36.808242, 2.536565)" fill="#62345B" id="Shape">
                            <g>
                                <path d="M34.5235926,0.507312925 L21.8310953,0.507312925 C30.2081435,7.99017857 35.4120674,19.0242347 35.4120674,31.0729167 C35.4120674,51.6190901 20.3079957,68.7409014 0.507699892,71.7847789 C2.53849946,72.1652636 4.696224,72.2920918 6.85394854,72.2920918 C29.7004437,72.2920918 48.2314897,53.9019983 48.2314897,31.0729167 C48.2314897,18.8974065 42.9006408,7.99017857 34.5235926,0.507312925 Z"></path>
                            </g>
                        </g>
                        <path d="M43.7891156,77.3652211 C19.5464458,77.3652211 0,57.7068452 0,33.6094813 C0,21.1803146 5.33084886,9.38528912 14.4694469,1.14145408 C14.9771468,0.760969388 15.4848467,0.507312925 16.1194716,0.507312925 L71.3318348,0.507312925 C71.9664596,0.507312925 72.6010845,0.760969388 72.9818594,1.14145408 C82.2473824,9.38528912 87.4513063,21.3071429 87.4513063,33.6094813 C87.5782313,57.7068452 67.9048605,77.3652211 43.7891156,77.3652211 Z M17.1348713,5.58044218 C9.39244799,12.8096514 5.07699892,22.9559099 5.07699892,33.6094813 C5.07699892,54.9166241 22.3387952,72.2920918 43.7891156,72.2920918 C65.2394361,72.2920918 82.5012324,54.9166241 82.5012324,33.6094813 C82.5012324,22.9559099 78.0588583,12.8096514 70.44336,5.58044218 L17.1348713,5.58044218 Z" id="Shape" fill="#652419"></path>
                        <path d="M43.7891156,120.48682 C42.3929409,120.48682 41.2506162,119.345366 41.2506162,117.950255 L41.2506162,76.0969388 C41.2506162,74.7018282 42.3929409,73.5603741 43.7891156,73.5603741 C45.1852903,73.5603741 46.3276151,74.7018282 46.3276151,76.0969388 L46.3276151,117.950255 C46.3276151,119.345366 45.1852903,120.48682 43.7891156,120.48682 Z" id="Shape" fill="#652419"></path>
                        <path d="M69.1741102,120.48682 L18.4041211,120.48682 C17.0079464,120.48682 15.8656216,119.345366 15.8656216,117.950255 C15.8656216,116.555145 17.0079464,115.41369 18.4041211,115.41369 L69.1741102,115.41369 C70.5702849,115.41369 71.7126097,116.555145 71.7126097,117.950255 C71.7126097,119.345366 70.5702849,120.48682 69.1741102,120.48682 Z" id="Shape" fill="#652419"></path>
                        <g opacity="0.8" transform="translate(7.615498, 7.609694)" fill="#FFFFFF" id="Shape">
                            <path d="M7.23472345,45.6581633 C6.34624864,45.6581633 5.58469881,45.2776786 5.07699892,44.389881 C1.77694962,38.8094388 0,32.4680272 0,25.9997874 C0,16.7413265 3.42697427,7.99017857 9.77322291,1.26828231 C10.7886227,0.253656463 12.3117224,0.253656463 13.3271222,1.14145408 C14.3425219,2.15607993 14.3425219,3.67801871 13.4540471,4.69264456 C7.99627329,10.5267432 5.07699892,18.1364371 5.07699892,25.9997874 C5.07699892,31.5802296 6.60009859,37.0338435 9.39244799,41.8533163 C10.1539978,42.9947704 9.77322291,44.6435374 8.50397318,45.2776786 C8.12319826,45.531335 7.61549837,45.6581633 7.23472345,45.6581633 Z"></path>
                        </g>
                    </g>
                </g>
            </g>
        </g>
    </g>
</svg>