<?xml version="1.0" encoding="UTF-8"?>
<svg width="255px" height="254px" viewBox="0 0 255 254" version="1.1" xmlns="http://www.w3.org/2000/svg" xmlns:xlink="http://www.w3.org/1999/xlink">
    <!-- Generator: Sketch 51.2 (57519) - http://www.bohemiancoding.com/sketch -->
    <title>drink-icon</title>
    <desc>Created with Sketch.</desc>
    <defs>
        <polygon id="path-1" points="0.0275868738 0.211054424 270.815207 0.211054424 270.815207 270.408297 0.0275868738 270.408297"></polygon>
        <path d="M254.323511,126.829219 C254.323511,196.800401 197.583716,253.520235 127.590699,253.520235 C57.5999417,253.520235 0.860147138,196.800401 0.860147138,126.829219 C0.860147138,56.8580378 57.5999417,0.138203578 127.590699,0.138203578 C197.583716,0.138203578 254.323511,56.8580378 254.323511,126.829219" id="path-3"></path>
    </defs>
    <g id="Page-1" stroke="none" stroke-width="1" fill="none" fill-rule="evenodd">
        <g id="The-Prototype" transform="translate(-385.000000, -99.000000)">
            <g id="drink-icon" transform="translate(377.000000, 90.000000)">
                <g id="Group">
                    <g id="Group-3">
                        <mask id="mask-2" fill="white">
                            <use xlink:href="#path-1"></use>
                        </mask>
                        <g id="Clip-2"></g>
                    </g>
                    <g id="last-word" transform="translate(8.000000, 9.000000)">
                        <mask id="mask-4" fill="white">
                            <use xlink:href="#path-3"></use>
                        </mask>
                        <use id="Mask" fill="#802D1F" xlink:href="#path-3"></use>
                    </g>
                </g>
                <g id="if_Drinks-26_1200412" transform="translate(90.000000, 104.000000)" fill-rule="nonzero">
                    <path d="M77.2736434,99 L8.84305849,99 C5.1213951,99 2,95.9887077 2,92.1342535 L2,3 L83.9966482,3 L83.9966482,92.1342535 C84.1167019,95.9887077 80.9953068,99 77.2736434,99 Z" id="Shape" fill="#EAF3FB"></path>
                    <path d="M70.4319335,71 L15.6863867,71 C8.1228572,71 2,64.8351648 2,57.2197802 L2,16 L83.9982641,16 L83.9982641,57.3406593 C84.1183202,64.8351648 77.9954629,71 70.4319335,71 Z" id="Shape" fill="#EB9024"></path>
                    <g id="Group" opacity="0.2" transform="translate(69.000000, 2.000000)" fill="#62345B">
                        <g id="Shape">
                            <path d="M0.728571429,0.36 L0.728571429,96 L8.98571429,96 C12.75,96 15.9071429,93 15.9071429,89.16 L15.9071429,0.36 L0.728571429,0.36 Z"></path>
                        </g>
                    </g>
                    <g id="Group" opacity="0.7" transform="translate(11.000000, 1.000000)" fill="#FFFFFF">
                        <path d="M2.48,36.1645161 C1.16,36.1645161 0.08,35.1246419 0.08,33.8536844 L0.08,2.3108317 C0.08,1.03987427 1.16,0 2.48,0 C3.8,0 4.88,1.03987427 4.88,2.3108317 L4.88,33.8536844 C4.88,35.1246419 3.8,36.1645161 2.48,36.1645161 Z" id="Shape"></path>
                    </g>
                    <path d="M77.85252,101 L9.26529218,101 C4.21149645,101 0,96.776583 0,91.7084827 L0,2.41338112 C0,1.08602151 1.08295623,0 2.4065694,0 L84.5909143,0 C85.9145275,0 86.9974837,1.08602151 86.9974837,2.41338112 L86.9974837,91.7084827 C87.1178122,96.776583 82.9063158,101 77.85252,101 Z M4.8131388,4.82676225 L4.8131388,91.7084827 C4.8131388,94.1218638 6.85872278,96.1732378 9.26529218,96.1732378 L77.7321915,96.1732378 C80.1387609,96.1732378 82.1843449,94.1218638 82.1843449,91.7084827 L82.1843449,4.82676225 L4.8131388,4.82676225 Z" id="Shape" fill="#652419"></path>
                    <g id="Group" opacity="0.5" transform="translate(17.000000, 36.000000)" fill="#FFFFFF">
                        <path d="M10.6857143,31.3793103 L2.18571429,20.5172414 C-0.121428571,17.5 0.364285714,13.1551724 3.4,10.862069 L14.3285714,2.4137931 C17.3642857,0.120689655 21.7357143,0.603448276 24.0428571,3.62068966 L32.5428571,14.4827586 C34.85,17.5 34.3642857,21.8448276 31.3285714,24.137931 L20.4,32.5862069 C17.3642857,34.8793103 12.9928571,34.3965517 10.6857143,31.3793103 Z" id="Shape"></path>
                    </g>
                    <g id="Group" opacity="0.5" transform="translate(28.000000, 7.000000)" fill="#FFFFFF">
                        <path d="M0.711111111,17.0666667 L5.45185185,4.38518519 C6.75555556,0.948148148 10.6666667,-0.82962963 14.1037037,0.474074074 L26.6666667,5.21481481 C30.1037037,6.51851852 31.8814815,10.4296296 30.5777778,13.8666667 L25.837037,26.5481481 C24.5333333,29.9851852 20.6222222,31.762963 17.1851852,30.4592593 L4.62222222,25.7185185 C1.18518519,24.4148148 -0.592592593,20.5037037 0.711111111,17.0666667 Z" id="Shape"></path>
                    </g>
                    <g id="Group" opacity="0.5" transform="translate(48.000000, 31.000000)" fill="#FFFFFF">
                        <path d="M27.7333333,25.9555556 L15.2888889,31.1703704 C11.8518519,32.5925926 7.94074074,30.9333333 6.51851852,27.4962963 L1.18518519,15.0518519 C-0.237037037,11.6148148 1.42222222,7.7037037 4.85925926,6.28148148 L17.3037037,1.06666667 C20.7407407,-0.355555556 24.6518519,1.3037037 26.0740741,4.74074074 L31.2888889,17.1851852 C32.7111111,20.6222222 31.1703704,24.5333333 27.7333333,25.9555556 Z" id="Shape"></path>
                    </g>
                </g>
                <g id="if_Drinks-03_1200391" transform="translate(146.000000, 66.000000)" fill-rule="nonzero">
                    <path d="M33,13.6255061 C26.0728745,20.791498 14.9190283,20.791498 8.10931174,13.6255061 L4,9.37449393 C10.9271255,2.20850202 22.0809717,2.20850202 28.8906883,9.37449393 L33,13.6255061 Z" id="Shape" fill="#85C559"></path>
                    <g id="Group" fill="#652419">
                        <path d="M11.7418605,42.0444444 C11.3860465,42.0444444 11.0302326,41.925 10.7930233,41.8055556 C9.60697674,41.2083333 9.01395349,39.8944444 9.60697674,38.7 L10.555814,36.55 C17.7906977,20.5444444 31.3116279,8.24166667 47.7976744,2.74722222 C49.1023256,2.26944444 50.4069767,2.98611111 50.7627907,4.3 C51.1186047,5.49444444 50.5255814,6.92777778 49.2209302,7.28611111 C34.0395349,12.4222222 21.4674419,23.7694444 14.8255814,38.4611111 L13.8767442,40.6111111 C13.5209302,41.5666667 12.6906977,42.0444444 11.7418605,42.0444444 Z" id="Shape"></path>
                        <path d="M20.044186,19.8277778 C14.7069767,19.8277778 9.60697674,17.6777778 5.81162791,13.8555556 L1.66046512,9.675 C1.18604651,9.19722222 0.948837209,8.6 0.948837209,8.00277778 C0.948837209,7.40555556 1.18604651,6.80833333 1.66046512,6.33055556 C5.45581395,2.50833333 10.555814,0.358333333 15.8930233,0.358333333 C21.2302326,0.358333333 26.3302326,2.50833333 30.1255814,6.33055556 L34.2767442,10.5111111 C35.2255814,11.4666667 35.2255814,12.9 34.2767442,13.8555556 C30.4813953,17.7972222 25.3813953,19.8277778 20.044186,19.8277778 Z M6.76046512,8.12222222 L9.13255814,10.5111111 C12.0976744,13.4972222 15.8930233,15.05 20.044186,15.05 C23.3651163,15.05 26.5674419,13.975 29.1767442,12.0638889 L26.8046512,9.675 C23.8395349,6.68888889 20.044186,5.13611111 15.8930233,5.13611111 C12.572093,5.13611111 9.36976744,6.21111111 6.76046512,8.12222222 Z" id="Shape"></path>
                    </g>
                </g>
            </g>
        </g>
    </g>
</svg>