<?xml version="1.0" encoding="UTF-8"?>
<svg width="255px" height="254px" viewBox="0 0 255 254" version="1.1" xmlns="http://www.w3.org/2000/svg" xmlns:xlink="http://www.w3.org/1999/xlink">
    <!-- Generator: Sketch 51.2 (57519) - http://www.bohemiancoding.com/sketch -->
    <title>drink-icon</title>
    <desc>Created with Sketch.</desc>
    <defs>
        <polygon id="path-1" points="0.0275868738 0.211054424 270.815207 0.211054424 270.815207 270.408297 0.0275868738 270.408297"></polygon>
        <path d="M254.323511,126.829219 C254.323511,196.800401 197.583716,253.520235 127.590699,253.520235 C57.5999417,253.520235 0.860147138,196.800401 0.860147138,126.829219 C0.860147138,56.8580378 57.5999417,0.138203578 127.590699,0.138203578 C197.583716,0.138203578 254.323511,56.8580378 254.323511,126.829219" id="path-3"></path>
    </defs>
    <g id="Page-1" stroke="none" stroke-width="1" fill="none" fill-rule="evenodd">
        <g id="The-Concept" transform="translate(-385.000000, -99.000000)">
            <g id="drink-icon" transform="translate(377.000000, 90.000000)">
                <g id="Group">
                    <g id="Group-3">
                        <mask id="mask-2" fill="white">
                            <use xlink:href="#path-1"></use>
                        </mask>
                        <g id="Clip-2"></g>
                    </g>
                    <g id="last-word" transform="translate(8.000000, 9.000000)">
                        <mask id="mask-4" fill="white">
                            <use xlink:href="#path-3"></use>
                        </mask>
                        <use id="Mask" fill="#802D1F" xlink:href="#path-3"></use>
                    </g>
                </g>
                <g id="if_Drinks-20_1200404" transform="translate(145.000000, 140.000000) scale(-1, 1) translate(-145.000000, -140.000000) translate(96.000000, 46.000000)" fill-rule="nonzero">
                    <rect id="Rectangle-path" fill="#EAF3FB" x="33.5279051" y="34.0017298" width="60.3173588" height="150.711221"></rect>
                    <path d="M78.7248361,154.636447 L48.6483329,154.636447 C40.2663567,154.636447 33.5279051,147.897996 33.5279051,139.51602 L33.5279051,34.0017298 L93.8452639,34.0017298 L93.8452639,139.51602 C93.8452639,147.897996 87.1068124,154.636447 78.7248361,154.636447 Z" id="Shape" fill="#DFA653"></path>
                    <g id="Group" opacity="0.2" transform="translate(77.245664, 33.508672)" fill="#62345B">
                        <g id="Rectangle-path">
                            <rect x="0" y="0.493057429" width="16.5996001" height="150.711221"></rect>
                        </g>
                    </g>
                    <g id="Group" opacity="0.7" transform="translate(40.444594, 40.221623)" fill="#FFFFFF">
                        <path d="M3.60186933,91.0512718 C1.79399209,91.0512718 0.314819809,89.5720995 0.314819809,87.7642223 L0.314819809,3.451402 C0.314819809,1.64352476 1.79399209,0.164352476 3.60186933,0.164352476 C5.40974657,0.164352476 6.88891886,1.64352476 6.88891886,3.451402 L6.88891886,87.7642223 C6.88891886,89.5720995 5.40974657,91.0512718 3.60186933,91.0512718 Z" id="Shape"></path>
                    </g>
                    <path d="M93.8452639,188 L33.5279051,188 C31.7200279,188 30.2408556,186.520828 30.2408556,184.71295 L30.2408556,34.0017298 C30.2408556,32.1938526 31.7200279,30.7146803 33.5279051,30.7146803 L93.8452639,30.7146803 C95.6531411,30.7146803 97.1323134,32.1938526 97.1323134,34.0017298 L97.1323134,184.71295 C97.1323134,186.520828 95.6531411,188 93.8452639,188 Z M36.8149547,181.425901 L90.5582144,181.425901 L90.5582144,37.2887794 L36.8149547,37.2887794 L36.8149547,181.425901 Z" id="Shape" fill="#652419"></path>
                    <path d="M48.6483329,37.2887794 C47.0048082,37.2887794 45.6899884,36.138312 45.3612834,34.4947873 L41.416824,8.36274355 L4.60186933,22.0039991 C2.95834457,22.661409 0.986114857,21.8396466 0.328704952,20.0317694 C-0.328704952,18.3882446 0.493057429,16.4160149 2.30093467,15.758605 L43.0603488,0.638177168 C44.0464636,0.309472216 45.0325785,0.309472216 45.8543409,0.96688212 C46.6761032,1.45993955 47.3335131,2.28170193 47.4978656,3.26781679 L51.9353825,33.5086724 C52.2640874,35.3165496 50.9492676,36.9600744 49.1413904,37.2887794 C48.9770379,37.2887794 48.8126854,37.2887794 48.6483329,37.2887794 Z" id="Shape" fill="#652419"></path>
                    <g id="Group" transform="translate(54.236317, 115.684910)" fill="#FFFFFF" opacity="0.7">
                        <g transform="translate(14.791723, 0.000000)" id="Oval">
                            <circle cx="3.61575448" cy="4.27316438" r="2.95834457"></circle>
                        </g>
                        <g transform="translate(14.791723, 14.791723)" id="Oval">
                            <circle cx="3.61575448" cy="4.43751686" r="2.95834457"></circle>
                        </g>
                        <g transform="translate(0.000000, 14.791723)" id="Oval">
                            <circle cx="3.451402" cy="4.43751686" r="2.95834457"></circle>
                        </g>
                    </g>
                </g>
            </g>
        </g>
    </g>
</svg>